<svg id="Layer_1" data-name="Layer 1" xmlns="http://www.w3.org/2000/svg" viewBox="0 0 243 343"><defs><style>.cls-1{fill:#fff;}.cls-2{fill:#d80000;}.cls-3{fill:#00d800;}.cls-4{fill:#202020;}.cls-5{font-size:5px;font-family:Chalkduster, Chalkduster;}.cls-6{letter-spacing:0.01em;}.cls-7{letter-spacing:-0.02em;}.cls-8{letter-spacing:-0.02em;}.cls-9{letter-spacing:-0.02em;}.cls-10{letter-spacing:0.04em;}.cls-11{letter-spacing:-0.04em;}.cls-12{letter-spacing:0.01em;}.cls-13{letter-spacing:-0.03em;}.cls-14{letter-spacing:0.02em;}.cls-15{letter-spacing:-0.01em;}.cls-16{letter-spacing:-0.13em;}.cls-17{letter-spacing:-0.03em;}.cls-18{letter-spacing:0.03em;}.cls-19{letter-spacing:0.02em;}.cls-20{letter-spacing:-0.04em;}.cls-21{letter-spacing:-0.01em;}.cls-22{letter-spacing:0.02em;}.cls-23{letter-spacing:0em;}.cls-24{letter-spacing:-0.03em;}.cls-25{letter-spacing:0.04em;}.cls-26{letter-spacing:-0.02em;}.cls-27{letter-spacing:0.02em;}.cls-28{letter-spacing:-0.06em;}.cls-29{letter-spacing:-0.05em;}.cls-30{letter-spacing:-0.07em;}.cls-31{letter-spacing:-0.01em;}.cls-32{letter-spacing:-0.02em;}.cls-33{letter-spacing:-0.07em;}.cls-34{letter-spacing:0.01em;}.cls-35{letter-spacing:0.01em;}.cls-36{letter-spacing:0.03em;}.cls-37{letter-spacing:0em;}.cls-38{letter-spacing:-0.05em;}.cls-39{letter-spacing:0.04em;}.cls-40{letter-spacing:0.04em;}.cls-41{letter-spacing:0.03em;}.cls-42{letter-spacing:0.02em;}.cls-43{letter-spacing:-0.12em;}.cls-44{letter-spacing:0.02em;}.cls-45{letter-spacing:0.02em;}.cls-46{letter-spacing:0.03em;}.cls-47{letter-spacing:-0.06em;}.cls-48{letter-spacing:-0.05em;}.cls-49{letter-spacing:0.03em;}.cls-50{letter-spacing:-0.04em;}.cls-51{letter-spacing:0.04em;}.cls-52{letter-spacing:0.01em;}.cls-53{letter-spacing:-0.12em;}.cls-54{letter-spacing:0.02em;}.cls-55{letter-spacing:0.05em;}.cls-56{letter-spacing:-0.08em;}.cls-57{letter-spacing:0.01em;}.cls-58{letter-spacing:0.03em;}.cls-59{letter-spacing:-0.02em;}.cls-60{letter-spacing:-0.04em;}.cls-61{letter-spacing:0em;}.cls-62{letter-spacing:0.04em;}.cls-63{letter-spacing:-0.05em;}.cls-64{letter-spacing:-0.03em;}.cls-65{letter-spacing:-0.1em;}.cls-66{letter-spacing:-0.02em;}.cls-67{letter-spacing:0.01em;}.cls-68{letter-spacing:-0.04em;}.cls-69{letter-spacing:-0.02em;}.cls-70{letter-spacing:0.01em;}.cls-71{letter-spacing:-0.04em;}.cls-72{letter-spacing:-0.01em;}</style></defs><title>Test the Docs</title><rect class="cls-1" x="33.5" y="33.5" width="209" height="309"/><path d="M452,123V431H244V123H452m1-1H243V432H453V122Z" transform="translate(-210 -89)"/><rect class="cls-1" x="22.5" y="22.5" width="209" height="309"/><path d="M441,112V420H233V112H441m1-1H232V421H442V111Z" transform="translate(-210 -89)"/><rect class="cls-1" x="11.5" y="11.5" width="209" height="309"/><path d="M430,101V409H222V101H430m1-1H221V410H431V100Z" transform="translate(-210 -89)"/><rect class="cls-1" x="0.5" y="0.5" width="209" height="309"/><path d="M419,90V398H211V90H419m1-1H210V399H420V89Z" transform="translate(-210 -89)"/><rect class="cls-1" x="22.5" y="34.5" width="29" height="29"/><path d="M261,124v28H233V124h28m1-1H232v30h30V123Z" transform="translate(-210 -89)"/><rect class="cls-2" x="22.5" y="97.5" width="29" height="29"/><path d="M261,187v28H233V187h28m1-1H232v30h30V186Z" transform="translate(-210 -89)"/><rect class="cls-1" x="22.5" y="160.5" width="29" height="29"/><path d="M261,250v28H233V250h28m1-1H232v30h30V249Z" transform="translate(-210 -89)"/><rect class="cls-3" x="22.5" y="223.5" width="29" height="29"/><path d="M261,313v28H233V313h28m1-1H232v30h30V312Z" transform="translate(-210 -89)"/><path class="cls-4" d="M267.18,158.82c.06,0,.14-.13.07-.16l-.2.11Z" transform="translate(-210 -89)"/><path class="cls-4" d="M267.08,158.13a.56.56,0,0,0-.46.26c.22-.08.17,0,.43-.11.08,0,.05.15,0,.2s.06.12.19.05,0-.3-.25-.29C267,158.18,267.05,158.16,267.08,158.13Z" transform="translate(-210 -89)"/><path class="cls-4" d="M261.66,152.21l0,.06A.14.14,0,0,0,261.66,152.21Z" transform="translate(-210 -89)"/><path class="cls-4" d="M258.23,148.61a.08.08,0,0,0,.08,0S258.24,148.59,258.23,148.61Z" transform="translate(-210 -89)"/><path class="cls-4" d="M257.81,147.83l0,0S257.83,147.83,257.81,147.83Z" transform="translate(-210 -89)"/><path class="cls-4" d="M261.66,152.21l0-.14C261.56,152.11,261.63,152.16,261.66,152.21Z" transform="translate(-210 -89)"/><path class="cls-4" d="M265.92,157.74H266l-.07,0Z" transform="translate(-210 -89)"/><path class="cls-4" d="M263.34,153.63l0,0,.09,0Z" transform="translate(-210 -89)"/><path class="cls-4" d="M264.55,154.8s-.16.09-.23.14.12-.05.15,0A.52.52,0,0,0,264.55,154.8Z" transform="translate(-210 -89)"/><path class="cls-4" d="M266.2,156.92l.05,0Z" transform="translate(-210 -89)"/><path class="cls-4" d="M262.52,152.75a.21.21,0,0,0,0-.06Z" transform="translate(-210 -89)"/><path class="cls-4" d="M228.24,120.52l0,0S228.23,120.51,228.24,120.52Z" transform="translate(-210 -89)"/><path class="cls-4" d="M227.54,118.46l0,0a.6.6,0,0,0,.08-.08Z" transform="translate(-210 -89)"/><path class="cls-4" d="M256.89,146.56h0S256.91,146.57,256.89,146.56Z" transform="translate(-210 -89)"/><path class="cls-4" d="M246.7,136.58c0,.24-.34,0-.3.28C246.44,136.79,246.77,136.8,246.7,136.58Z" transform="translate(-210 -89)"/><path class="cls-4" d="M265.9,157.69l0-.05Z" transform="translate(-210 -89)"/><path class="cls-4" d="M246.4,136.86h0v0Z" transform="translate(-210 -89)"/><path class="cls-4" d="M254.27,144.11l0,.09A.3.3,0,0,0,254.27,144.11Z" transform="translate(-210 -89)"/><path class="cls-4" d="M256,146.19l0-.06A.06.06,0,0,0,256,146.19Z" transform="translate(-210 -89)"/><path class="cls-4" d="M253.1,143.33s0-.07,0-.08a0,0,0,0,0,0,0A.05.05,0,0,1,253.1,143.33Z" transform="translate(-210 -89)"/><path class="cls-4" d="M252.08,142.31v0l0,0Z" transform="translate(-210 -89)"/><path class="cls-4" d="M231.4,123.55a.89.89,0,0,1,.08-.17C231.4,123.49,231.21,123.37,231.4,123.55Z" transform="translate(-210 -89)"/><path class="cls-4" d="M266,157.66s-.06,0-.09,0l0,0S266,157.68,266,157.66Z" transform="translate(-210 -89)"/><path class="cls-4" d="M252,144.36l-.14-.19A.77.77,0,0,0,252,144.36Z" transform="translate(-210 -89)"/><path class="cls-4" d="M238.73,130.84l0,0A.05.05,0,0,0,238.73,130.84Z" transform="translate(-210 -89)"/><path class="cls-4" d="M251.35,143.71a.28.28,0,0,0,0-.18h0Z" transform="translate(-210 -89)"/><path class="cls-4" d="M231.48,123.38Z" transform="translate(-210 -89)"/><path class="cls-4" d="M230.09,122.63c.15.16.25-.1.38-.17.24.13,0,.22-.07.37.16.07.41,0,.49.09s0,.06-.07.08c.26,0,.36.35.68.31a.14.14,0,0,1,0,.07.89.89,0,0,1,.22-.27c.07.06.24,0,.15.16,0,0-.09,0-.14,0l.12,0c-.1.24-.16,0-.28.09.19.08.5.11.56.26-.14.19-.31-.19-.31.1l-.11-.23c-.13.38-.08-.12-.24.27.17.27.33.16.5.43.14,0,.12-.15.26-.19.48.15-.16.66.28.67.17,0,.4-.24.46,0l-.24.13c.19.23.38-.15.48.2-.11,0-.23-.11-.22,0,0,.29.21,0,.32.11l-.14.18c.25.21.62.34.91.56-.07,0-.16,0-.15.15a2.66,2.66,0,0,1,.86,1.1l.26,0s0,.11-.07.11c.07.17.1-.08.21-.08s0,.17-.08.17c.33.09.86.34.93.71h-.08c.11.23.48-.09.51.2h-.06c.32.44.86.72.93,1.22.26-.15.28.47.59.21.08.35,0,.34.17.74.07.09.3-.06.43,0l-.15.15.29,0-.1.25.13.05a.16.16,0,0,1,0-.18.43.43,0,0,1,.18.54l.47.22c-.06.05-.14,0-.23,0,.34,0-.12.19.19.22,0-.06.1-.08.13-.11,0,.18.19.37.37.47l-.13.08c.23.28.59.49.87.78-.05-.15.15-.31.25-.24l-.12.19c.15,0,0-.15.2-.15s-.11.25-.22.24l.18.07c0,.06-.09.05-.16.1.15,0,.07.39.32.3l0,.05c.28.29.47.36.71.59.14-.13.2,0,.38-.05a2.64,2.64,0,0,0,.43.71c.21.08.16-.07.3-.09-.11.14.11.33-.09.31a3,3,0,0,0,.76.51c0-.09,0-.15.06-.17a.15.15,0,0,1,0,.23h0c.54.17.46,1.18,1,1.2h0l.42.15c.12.16-.17,0-.15.19.52.11.47.53.87.65-.17.57.73.69.77,1.19l.07-.1c.16,0,0,.13.07.2s0-.15.09-.15a8.6,8.6,0,0,1,1.63,2c.19.24.57-.32.64.16l-.24.08c.64.26.91.93,1.51,1.2-.06,0-.11.06-.15,0,0,.21.34.35.43.25.06.08-.07.1-.07.19s.38.09.31.25-.06,0-.09,0,.27.29.35.1c.1.23.37.26.42.47.24-.07.21.35.45.17-.23.2.11.46.32.46-.1,0,0,.16-.11.21.12.12.27.19.36.06,0,.48.65.22.44.68a10.32,10.32,0,0,1,1.25.75c-.23.21-.38-.33-.59-.09.39.22.75.2,1,.55,0,.11-.14.05-.21.07.39.21.57.6,1,.75,0,0-.07,0-.11,0s.09.15.18.05l-.08,0c.06-.22.51-.09.6-.15-.38.19.19.33-.31.55a.21.21,0,0,0,.2-.06c0,.07,0,.12-.12.15.25.13.28,0,.45.13,0,.05-.1,0-.17.07.18,0,.36,0,.46.17,0,0-.06.08-.1,0,.26.24.67.18.86.54-.29.13,0,.16-.15.36l.2.09,0-.15c.13.14.37.12.42.29l-.16,0,.27.2-.07-.2c.22,0,.22-.24.34,0-.06,0,.12.13.08.3h0c.12,0,.25,0,.3.15s-.22.18-.24.24c.21-.09.34.25.58.17a.35.35,0,0,0-.17.14l.17-.07c0,.09,0,.12-.07.19.16.2.17-.29.29,0,0,0,0,0-.09,0,.16.26.49.33.62.59-.12.24-.21-.13-.3.09.31.25.8.37,1,.68l0-.07c.29-.22.08.33.34.35-.06,0-.19.1-.15.08.14.23.44.32.81.52l-.1,0c.05.17.25.33.34.48.1,0,.16,0,.22-.09,0,.74.9.5.91,1.14,0,0-.15,0-.12,0l.34.22c.09-.13,0-.1.06-.25a.35.35,0,0,1,.3.06c-.2-.05-.18.19-.19.3s.08-.06.11-.1c-.05.34.25-.2.32.13l-.07.05c.1,0,.25,0,.31.13-.09.16-.14,0-.25.08.12.11.47,0,.44.21-.08,0-.15-.08-.24-.09,0,.26,0,.24.07.34h0l.12.26v-.09c.48-.2.35.22.76.19-.39,0-.15.09-.31.23,0,.08,0,.2,0,.22.21,0,.06.25.36.2,0,.05.09.1,0,.2.15.08,0-.11.12-.16.34,0,.23.62.71.65.31.13.51,0,.8.14,0,.15-.23.12-.23.12a.37.37,0,0,0,.3.3c-.06,0-.08.08-.1.17s.23-.12.27.06a.81.81,0,0,1-.27.11,4.94,4.94,0,0,1,.48.13c-.06.11-.19.06-.28.08.15.07.38.22.54.13l0-.12s-.09.13-.14.12-.1-.19-.06-.24l.1.05c.2-.36-.34-.26-.47-.42l.26-.14h-.32c0-.08.11-.22.22-.17,0-.21-.17,0-.15-.23,0,0,0,0,0,0l-.16,0c.06,0,.12-.16.16-.07-.08-.3-.46-.15-.37-.37h0c-.32-.19-.17.12-.54.1l.24-.49-.18.12a.1.1,0,0,1,0-.15c-.2,0-.05.09-.2.12,0-.26-.42-.29-.21-.55-.16.06,0,.21-.18.15.21-.29-.2-.12-.21-.35.17-.1.21.08.21-.15-.29.15-.18-.28-.32-.33-.18.17-.29-.15-.51-.25.07,0-.22-.41-.31-.63l0,0c-.21.15-.33,0-.49-.12.12-.1.18-.13.29-.11l-.11-.11a.26.26,0,0,1-.24,0l.16-.11c-.15-.14-.45-.13-.55-.41-.13.11-.19.49-.47.38.06-.08.16-.2.24-.17s-.11,0-.12-.07l.19,0c0-.14-.14,0-.19,0s0-.12.1-.19,0,.1.08.09a.43.43,0,0,1-.05-.35c0,.06-.13.13-.2.09s.07-.17,0-.3c-.1,0-.13-.13-.27,0,0-.05,0-.12,0-.17-.14,0-.37-.34-.44-.1v0h0c-.39-.1-.43-.59-.74-.78l.05,0c-.2-.1-.36-.3-.56-.3s0-.19.06-.23c-.15-.07-.22,0-.3-.27.2,0,0-.11.18,0-.11-.18-.06-.29-.35-.32.18-.07.05-.26-.06-.29v.19a.87.87,0,0,1-.21-.22l.2-.13c-.1-.49-.87-.2-.77-.75-.19,0,.09.24-.12.3-.11-.16,0-.53-.07-.58-.09-.27-.4.06-.54-.19a.26.26,0,0,1-.36.16c-.12-.15.07-.4.2-.36a0,0,0,0,1,0,.08c.06,0,.15,0,.15-.06l-.07,0c0-.13-.21-.31-.07-.36-.16-.05-.14,0-.09.15-.09-.25-.27-.27-.4-.51,0,.06,0,.16-.07.13-.19-.34-.22,0-.43-.17,0-.19.25-.17,0-.28-.05-.17.13-.17.22-.17-.27-.06-.23-.38-.31-.5l.14,0a.42.42,0,0,1-.17-.11l-.06.16c0-.07-.08-.11,0-.16-.12,0-.15.23-.35.23,0-.12-.27-.14-.14-.32.16.27.12-.17.33,0-.05,0-.09-.06-.13-.13s0,0,.07,0c-.07-.34-.27.08-.48-.13.11-.06.12-.22.06-.23s-.1.18-.24.17c-.07-.2-.2-.1-.26-.18l0,.11c-.12.06-.17,0-.3-.08.06-.08.14,0,.13,0-.25.05-.08-.39-.33-.44,0-.12.16-.16.14-.26-.28-.06-.06-.3-.33-.38-.06.17,0,.15-.26.14l.36.2h-.35c.09.08.26.1.29.18-.18,0-.14,0-.2.12.06-.29-.33-.13-.35-.38l.29-.29c-.08-.33-.51-.21-.7-.55l0,.14c-.15.08-.18-.15-.31-.19.11-.09.09-.17.11-.27-.07.07-.19-.2-.4,0v-.25c-.17-.26-.52,0-.69-.21.16,0,.14-.2.35-.14-.07-.07-.11-.15-.18-.08,0-.1-.32-.06-.29-.22-.07,0-.18.11-.25,0a.14.14,0,0,1,.05,0c-.05,0-.19-.06-.22.11.08-.51-.62-.57-.54-1a3.26,3.26,0,0,1-.54-.39s.05-.05.06,0c-.09-.28-.38.16-.5-.16.05-.26.2,0,.19-.09.28-.35-.3-.22-.26-.54h.05c0-.21-.39-.15-.54-.35l.05,0a1.37,1.37,0,0,1-.79-.27c.18-.07.15,0,.24-.15-.1-.06-.18.23-.37.11,0-.12,0-.29.08-.44l.16.14c.09-.25-.2-.18-.24-.29l.08-.06c-.25-.2-.44,0-.67-.27l0,.08c-.32.06,0-.21-.27-.2l.15-.23a3.11,3.11,0,0,1-.68-.24,1.9,1.9,0,0,1,.68.08c-.08-.08-.3-.27-.44-.23,0,0,.14,0,.14.08a.66.66,0,0,1-.63-.19c.4-.34-.35-.54-.19-.95-.44-.17-.54-.66-.91-1-.16.41-.11-.09-.39.22-.1-.06-.12-.09-.11-.12l-.07-.43c0-.14.14,0,.2-.06-.16-.2.05-.2,0-.39-.08.13-.22.09-.28-.06v.28c-.41-.09,0-.46-.38-.56h.18c-.19-.08-.48-.48-.84-.37,0-.06.06-.17.14-.13-.28-.35-1-.44-1-.83l.1-.05c-.08,0-.24,0-.24-.11s.09,0,.07-.08-.28,0-.31-.14l.14,0c-.2-.39-.66-.26-1-.47.21-.21,0-.52,0-.67l0,0c-.32-.38-.77-.43-1.18-.67,0-.43-.59-.78-.78-1.23,0,.08-.18.15-.26.12s-.35-.07-.15-.25l0,0c.13-.25-.08-.35-.19-.48l-.28.23c.05-.69-1-.7-.82-1.21-.14,0-.23-.11-.37-.12l.14-.13a2.47,2.47,0,0,0-.57-.61l.15,0c-.14-.16-.58.21-.73.08l.17-.25c-.27-.26-.35-.7-.79-.77,0,0,.1-.08.15,0-.12-.13-.34-.62-.57-.29.18-.19-.25-.29-.47-.35l.15-.11c-.29,0-.34.1-.55,0,0-.06.07-.15.09-.06-.06-.2-.23,0-.32-.2l.15,0c-.13-.15-.16-.09-.34-.06a.3.3,0,0,1-.12-.43c-.09.05-.26.08-.31,0a.15.15,0,0,1,.12,0c-.13-.32-.49-.18-.51-.47a.17.17,0,0,0,0-.1c.18.18.32.33.29.33.13-.13,0-.29.29-.35-.21,0-.61,0-.69-.22,0,0,0,0,0-.06h0a.14.14,0,0,0-.11-.07.36.36,0,0,0-.08-.15c.09-.12-.11-.22-.18-.3-.13.14-.2,0-.22.23,0,0,0,0,.08,0h0l.19.17c-.13,0-.25,0-.25-.14l-.32.11c.09-.28,0-.58.09-.72-.29-.14-.56-.47-1-.35-.09,0,0-.15,0-.21s.1.06.16,0c-.19-.06-.4-.34-.61-.2-.07-.23.26-.07,0-.26l.08,0c-.14-.71-1.14-.24-1.25-1.08,0,.06,0,.08,0,.12-.37-.7-1.26-1-1.53-1.75-.1-.2-.23-.1-.41-.11l.11-.18h-.33c-.34-.1,0-.74-.54-.79l-.06.13c-.09-.12-.38-.26-.25-.36,0,0-.14.07-.13,0l.08-.08-.38-.12c-.14-.24.33-.27.06-.57-.13-.07-.52-.07-.53,0a.18.18,0,0,1,0,.23l-.14,0c-.24.2-.54.36-.47.75l.31,0-.06.16-.15-.13c0,.18.12.14.24.13a.26.26,0,0,0-.05.19l.37,0c-.07.11-.24.1-.18.26.17,0,.12-.27.31-.21,0,.18-.13.24.05.24a.14.14,0,0,1-.16.08c.15,0,.24.19.41.11-.05.21.31.25.09.45a.6.6,0,0,1,.39.05c-.39.11.27.29,0,.53.33-.13.47.27.78.32,0,0-.09,0-.09,0s0,.22.06.32c.2-.17.41-.06.61-.09-.06.31-.3.15-.44.36.15-.16.37.07.46-.1,0,.2,0,.13-.08.34.25-.22.13,0,.35,0,0,.26-.18.26,0,.34C230.31,122.68,230.09,122.63,230.09,122.63Zm4,3.19h0l-.08-.07Zm.31.31-.13-.14c0-.06.1-.1.12-.06S234.4,126,234.41,126.13Zm.3-1.59a.07.07,0,0,1,0,.11l-.1-.07h0Z" transform="translate(-210 -89)"/><path class="cls-4" d="M234.44,124.64h0v.06l.06,0Z" transform="translate(-210 -89)"/><path class="cls-4" d="M261.68,152.28h0a0,0,0,0,1,0,0S261.68,152.29,261.68,152.28Z" transform="translate(-210 -89)"/><polygon class="cls-4" points="28.33 41.56 28.36 41.53 28.3 41.53 28.33 41.56"/><path class="cls-4" d="M262.88,154.41a.13.13,0,0,0,0,.06S262.88,154.44,262.88,154.41Z" transform="translate(-210 -89)"/><path class="cls-4" d="M263.57,155.16l.06.15A.77.77,0,0,0,263.57,155.16Z" transform="translate(-210 -89)"/><path class="cls-4" d="M264.06,155.78l.07,0h0Z" transform="translate(-210 -89)"/><path class="cls-4" d="M255.1,147.14l0,0C255,147.1,255,147.12,255.1,147.14Z" transform="translate(-210 -89)"/><path class="cls-4" d="M258,149.44l-.15,0C257.92,149.48,258,149.52,258,149.44Z" transform="translate(-210 -89)"/><path class="cls-4" d="M252,144.38h0Z" transform="translate(-210 -89)"/><path class="cls-4" d="M257.77,149.3a.15.15,0,0,0,.11.12S257.82,149.31,257.77,149.3Z" transform="translate(-210 -89)"/><path class="cls-4" d="M266.4,158.24l0,0,0,0Z" transform="translate(-210 -89)"/><path class="cls-4" d="M266.44,158.26h.05A0,0,0,0,0,266.44,158.26Z" transform="translate(-210 -89)"/><path class="cls-4" d="M266.59,158.3l-.1,0A.08.08,0,0,0,266.59,158.3Z" transform="translate(-210 -89)"/><path class="cls-4" d="M265.73,157.45l-.06,0Z" transform="translate(-210 -89)"/><path class="cls-4" d="M265.49,157.24c0,.06,0,.24.13.28l.05,0C265.56,157.53,265.62,157.21,265.49,157.24Z" transform="translate(-210 -89)"/><path class="cls-4" d="M265.17,155.7l.15.23c0-.09,0-.2.14-.13C265.38,155.41,265.39,156,265.17,155.7Z" transform="translate(-210 -89)"/><path class="cls-4" d="M264.67,155.05c.12.07.07-.08.11-.1C264.66,154.93,264.64,154.93,264.67,155.05Z" transform="translate(-210 -89)"/><path class="cls-4" d="M260.48,150.86l.14-.11C260.52,150.69,260.57,150.8,260.48,150.86Z" transform="translate(-210 -89)"/><polygon class="cls-4" points="49.05 61.7 49.05 61.85 49.19 61.78 49.05 61.7"/><polygon class="cls-4" points="49.45 60.35 49.51 60.37 49.33 60.28 49.45 60.35"/><path class="cls-4" d="M252.39,142.37l-.13.18C252.34,142.57,252.52,142.41,252.39,142.37Z" transform="translate(-210 -89)"/><path class="cls-4" d="M249.2,139.49c0-.11,0-.24-.12-.22C249.13,139.35,249.14,139.48,249.2,139.49Z" transform="translate(-210 -89)"/><polygon class="cls-4" points="30.35 41.15 30.46 41.16 30.3 41.09 30.35 41.15"/><path class="cls-4" d="M267.82,117.82c0-.06-.13-.14-.17-.07l.12.21Z" transform="translate(-210 -89)"/><path class="cls-4" d="M267.13,117.93a.52.52,0,0,0,.25.46c-.08-.22,0-.17-.11-.43,0-.08.15,0,.2,0s.13,0,.06-.19-.3,0-.3.26C267.17,118,267.15,118,267.13,117.93Z" transform="translate(-210 -89)"/><path class="cls-4" d="M261.06,123.49l.06,0Z" transform="translate(-210 -89)"/><path class="cls-4" d="M257.37,127a.06.06,0,0,0,0-.08S257.35,127,257.37,127Z" transform="translate(-210 -89)"/><path class="cls-4" d="M256.58,127.44l.05,0S256.58,127.42,256.58,127.44Z" transform="translate(-210 -89)"/><path class="cls-4" d="M261.06,123.49l-.14.05C261,123.6,261,123.53,261.06,123.49Z" transform="translate(-210 -89)"/><path class="cls-4" d="M266.71,119.11a.28.28,0,0,0,0-.09l0,.06Z" transform="translate(-210 -89)"/><path class="cls-4" d="M262.52,121.77l0,0,0-.09Z" transform="translate(-210 -89)"/><path class="cls-4" d="M263.71,120.53s.1.17.15.24a.22.22,0,0,1,0-.16Z" transform="translate(-210 -89)"/><path class="cls-4" d="M265.89,118.84v-.06S265.89,118.82,265.89,118.84Z" transform="translate(-210 -89)"/><path class="cls-4" d="M261.62,122.62l-.06,0Z" transform="translate(-210 -89)"/><path class="cls-4" d="M228.55,157.72s0,0,0,0S228.54,157.73,228.55,157.72Z" transform="translate(-210 -89)"/><path class="cls-4" d="M226.46,158.46l0,0-.07-.08Z" transform="translate(-210 -89)"/><path class="cls-4" d="M255.28,128.4h0S255.29,128.37,255.28,128.4Z" transform="translate(-210 -89)"/><path class="cls-4" d="M245.05,138.83c.24,0,0,.35.27.3C245.25,139.1,245.27,138.76,245.05,138.83Z" transform="translate(-210 -89)"/><path class="cls-4" d="M266.66,119.13s0,0-.05.05Z" transform="translate(-210 -89)"/><path class="cls-4" d="M245.32,139.13h0Z" transform="translate(-210 -89)"/><path class="cls-4" d="M252.77,131.07l.08,0Z" transform="translate(-210 -89)"/><path class="cls-4" d="M254.89,129.33l-.06,0A.09.09,0,0,0,254.89,129.33Z" transform="translate(-210 -89)"/><path class="cls-4" d="M252,132.27s-.07,0-.08.06h0A.05.05,0,0,1,252,132.27Z" transform="translate(-210 -89)"/><path class="cls-4" d="M250.91,133.31H251l0,0Z" transform="translate(-210 -89)"/><path class="cls-4" d="M231.66,154.49l-.17-.08C231.6,154.49,231.48,154.68,231.66,154.49Z" transform="translate(-210 -89)"/><path class="cls-4" d="M266.63,119s0,.06,0,.09l0,0S266.65,119,266.63,119Z" transform="translate(-210 -89)"/><path class="cls-4" d="M253,133.38l-.19.15A1.25,1.25,0,0,0,253,133.38Z" transform="translate(-210 -89)"/><path class="cls-4" d="M239.13,147l0,.05A0,0,0,0,0,239.13,147Z" transform="translate(-210 -89)"/><path class="cls-4" d="M252.33,134a.3.3,0,0,0-.19,0,.06.06,0,0,0,0,.05Z" transform="translate(-210 -89)"/><path class="cls-4" d="M231.49,154.41Z" transform="translate(-210 -89)"/><path class="cls-4" d="M230.72,155.83c.16-.16-.1-.25-.17-.39.13-.24.22.05.37.07.07-.16,0-.42.09-.5s.07,0,.08.08c0-.27.37-.38.33-.7l.07,0a1.06,1.06,0,0,1-.27-.22c.07-.08,0-.25.16-.16,0,0,0,.09,0,.15l0-.12c.23.1,0,.16.08.28.09-.2.12-.51.28-.57.18.14-.21.31.09.31l-.24.11c.39.13-.12.09.28.24.27-.17.17-.33.44-.51,0-.14-.15-.12-.19-.26.15-.48.66.16.68-.29-.05-.17-.23-.41,0-.46l.13.24c.24-.2-.14-.39.21-.5,0,.12-.11.24-.05.23.29,0,0-.21.11-.33l.19.14c.21-.26.35-.63.57-.92,0,.06.05.16.16.15a2.65,2.65,0,0,1,1.12-.89l0-.26s.12,0,.11.07c.18-.07-.08-.1-.08-.21a.1.1,0,0,1,.17.07c.1-.33.36-.87.74-.95v.09c.23-.12-.09-.49.2-.52v.05c.44-.32.74-.87,1.24-1-.14-.26.48-.29.22-.6.36-.08.34,0,.75-.18.09-.07-.06-.3,0-.43l.15.14,0-.29.25.1.06-.13a.19.19,0,0,1-.19,0,.45.45,0,0,1,.55-.19l.23-.48c.05.06,0,.14,0,.23,0-.34.19.12.23-.19-.06,0-.08-.1-.1-.14.17,0,.37-.19.48-.37l.07.13c.29-.24.51-.6.8-.89-.15.05-.31-.15-.24-.25l.2.12c0-.15-.15,0-.16-.2s.25.1.24.22l.08-.19c.06,0,0,.09.1.16,0-.15.39-.07.3-.32l.05,0c.3-.29.38-.48.61-.73-.13-.14,0-.2,0-.38a3.3,3.3,0,0,0,.72-.45c.08-.22-.07-.16-.09-.31.14.12.34-.11.32.09a3.11,3.11,0,0,0,.52-.77c-.09,0-.15,0-.17-.06a.16.16,0,0,1,.24,0v0c.18-.54,1.2-.47,1.23-1v0l.16-.43c.16-.12,0,.17.19.15.11-.53.54-.48.67-.88.57.16.7-.76,1.21-.8l-.1-.07c0-.16.13,0,.21-.07-.08-.06-.16,0-.16-.09a9.25,9.25,0,0,1,2.08-1.67c.25-.21-.32-.58.17-.66l.08.24c.27-.65.95-.93,1.23-1.54,0,.06.06.11,0,.15.21,0,.35-.34.26-.44.08-.06.1.07.19.08s.09-.39.26-.33,0,.07,0,.09.31-.27.11-.35c.24-.1.27-.38.48-.43-.06-.24.36-.22.18-.46.2.23.47-.12.47-.33,0,.1.16,0,.21.11.12-.12.19-.28.06-.37.49,0,.24-.66.7-.45a9.51,9.51,0,0,1,.78-1.27c.2.23-.34.38-.1.6.22-.4.21-.77.57-1,.11,0,.05.14.06.2.22-.39.61-.57.77-1,0,0,0,.08,0,.12s.16-.09,0-.19l0,.08c-.23-.05-.09-.51-.15-.6.19.38.34-.2.55.31a.18.18,0,0,0-.06-.21c.07,0,.13,0,.15.12.14-.25,0-.28.14-.46.05.05,0,.11.07.18,0-.18,0-.36.18-.47,0,0,.08.06,0,.1.24-.27.19-.68.56-.87.12.29.16,0,.36.14l.09-.21-.14,0c.13-.13.11-.38.29-.43l0,.17.22-.28-.21.07c0-.23-.24-.22,0-.34,0,0,.13-.13.31-.09h0c0-.12,0-.25.16-.3s.18.22.23.24c-.09-.22.27-.35.19-.59a.34.34,0,0,0,.13.17l-.07-.18a.15.15,0,0,1,.19.07c.21-.16-.28-.17,0-.29,0,0,0,0,0,.1.27-.17.34-.5.6-.64.24.12-.13.22.09.3.26-.32.38-.82.71-1l-.08,0c-.21-.3.34-.08.36-.35,0,.06.1.19.08.15.23-.15.33-.45.54-.82l0,.1c.17-.06.33-.27.48-.36,0-.1.05-.16-.09-.21.76,0,.52-.92,1.17-.94,0,0,0,.15,0,.12l.23-.35c-.14-.09-.11,0-.25-.06a.32.32,0,0,1,.06-.3c-.05.2.18.18.3.19,0,0-.06-.09-.1-.12.35,0-.2-.25.14-.31l.05.06c0-.1,0-.25.13-.31.17.09,0,.14.08.25.11-.12,0-.47.22-.45,0,.09-.08.16-.1.24.27,0,.24,0,.35-.07h0l.26-.12h-.09c-.19-.48.23-.35.21-.76,0,.39.09.15.22.31.09,0,.21,0,.23,0,0-.21.25-.06.2-.36.06,0,.11-.09.2,0,.09-.16-.11-.06-.16-.13,0-.34.63-.23.67-.72.14-.32,0-.52.16-.81.14,0,.11.23.11.23a.41.41,0,0,0,.31-.31c0,.07.08.08.17.1s-.12-.23.07-.28a1,1,0,0,1,.1.28c.06-.15.07-.34.14-.49.11.06.06.19.07.28.08-.15.24-.38.14-.55l-.12,0c0-.05.14.09.13.15s-.2.1-.25.06l.05-.11c-.36-.19-.26.35-.43.49l-.14-.27v.33c-.08,0-.22-.11-.17-.22-.21,0,0,.17-.23.15,0,0,0,0,0,0l-.05.16c0-.06-.16-.12-.07-.16-.3.08-.15.46-.38.38v0c-.2.34.12.18.09.55l-.5-.23.12.17s-.09.07-.14,0c0,.2.08,0,.11.2-.26,0-.3.43-.56.22.06.16.21,0,.15.18-.29-.21-.12.21-.36.21-.09-.17.09-.21-.14-.21.14.3-.29.19-.35.33.17.18-.14.3-.26.53-.05-.07-.41.22-.64.32l0,0c.15.21,0,.34-.13.5a.28.28,0,0,1-.11-.29l-.11.11a.26.26,0,0,1,0,.24l-.1-.16c-.14.16-.15.46-.43.56.12.14.5.2.38.48-.07-.06-.2-.17-.17-.25s0,.12-.07.13l0-.2c-.14,0,0,.14,0,.2s-.12,0-.19-.1.1,0,.09-.08a.44.44,0,0,1-.35.06c.06,0,.13.12.08.19s-.16-.06-.3,0c0,.1-.13.13,0,.27-.05,0-.12,0-.18,0,0,.14-.34.37-.1.44h0s0,0,0,0h0c-.11.39-.61.44-.8.75l0,0c-.1.2-.3.36-.31.57,0,0-.19,0-.23-.06-.08.15,0,.22-.28.31,0-.2-.11,0,.06-.18-.19.11-.3.06-.33.35-.07-.17-.27,0-.3.07l.19,0a.77.77,0,0,1-.22.22l-.13-.2c-.5.11-.21.88-.77.79,0,.19.24-.09.3.11-.16.12-.54,0-.58.08-.28.1.05.41-.21.55a.28.28,0,0,1,.17.37c-.16.12-.42-.07-.37-.2s.06,0,.08,0,.06-.15-.06-.16l0,.08c-.13,0-.32.21-.37.07-.05.16.05.14.16.09-.26.1-.28.28-.52.41.06,0,.15,0,.12.07-.34.2,0,.23-.17.44-.19,0-.17-.25-.28,0-.17,0-.18-.13-.18-.22-.06.28-.39.24-.5.32l0-.14a.45.45,0,0,1-.11.17l.16.06c-.07,0-.12.08-.16,0,0,.13.23.15.23.36-.13,0-.15.28-.33.15.27-.17-.18-.13,0-.34a.21.21,0,0,1-.13.13s0,0,0-.06c-.34.07.08.26-.14.48-.06-.12-.22-.11-.23-.06s.18.1.17.25c-.21.07-.11.2-.19.26l.12-.05c.06.11,0,.17-.09.3-.08-.06,0-.14,0-.13.05.26-.4.09-.44.34-.13,0-.17-.16-.27-.14-.06.28-.3.07-.39.34.17.06.15,0,.14.26l.21-.37,0,.35c.09-.08.11-.25.18-.29,0,.19,0,.15.13.2-.3,0-.14.34-.4.36l-.28-.29c-.33.09-.22.52-.57.72l.14,0c.08.15-.15.19-.19.32-.09-.1-.18-.08-.28-.11.08.07-.2.2,0,.41h-.25c-.27.16,0,.52-.22.7,0-.17-.21-.14-.14-.36-.07.07-.15.12-.09.18-.1,0-.06.33-.22.3,0,.07.11.18,0,.25a.11.11,0,0,1,0,0s-.06.18.12.22c-.52-.08-.59.63-1,.56a6,6,0,0,1-.41.55s0-.05,0-.07c-.28.1.16.39-.16.51-.27,0,0-.2-.1-.19-.34-.28-.22.31-.55.27l0,0c-.22,0-.15.39-.36.55a.11.11,0,0,0,0,0,1.33,1.33,0,0,1-.28.79c-.07-.17,0-.14-.14-.23-.06.09.22.17.1.37-.12,0-.29,0-.44-.08l.14-.16c-.25-.09-.19.2-.29.25l-.07-.09c-.2.26,0,.45-.28.68l.09,0c.05.33-.22,0-.22.28l-.23-.15a2.65,2.65,0,0,1-.25.69,2,2,0,0,1,.1-.69c-.09.09-.29.32-.24.46,0-.06,0-.15.08-.15a.71.71,0,0,1-.2.64c-.34-.4-.55.36-1,.2-.17.45-.67.56-1,.94.42.16-.09.11.22.39-.06.1-.1.13-.13.12l-.43.07c-.14,0,0-.14,0-.2-.21.16-.21,0-.41,0,.13.08.09.21-.06.27h.29c-.1.42-.47,0-.57.39l0-.17c-.07.18-.49.49-.38.85-.06,0-.17-.06-.13-.14-.36.28-.46,1-.85,1.06l-.05-.09c0,.08,0,.24-.11.24s-.05-.1-.08-.08,0,.29-.15.32l0-.14c-.4.21-.28.67-.49,1-.21-.22-.52,0-.68,0l0,0c-.39.34-.44.79-.69,1.21-.44,0-.8.6-1.26.81.09,0,.16.17.12.25s-.07.37-.25.16l0,0c-.25-.13-.36.08-.49.2l.23.28c-.7,0-.72,1-1.23.84,0,.15-.12.24-.13.38l-.13-.14a2.57,2.57,0,0,0-.62.58l0-.15c-.17.15.2.59.06.74l-.24-.16c-.27.27-.72.36-.79.81,0,0-.08-.1-.05-.16-.13.12-.62.35-.29.59-.19-.18-.3.25-.36.48l-.11-.16c0,.29.09.35,0,.56-.06,0-.15-.07-.06-.09-.2.07,0,.23-.21.32l0-.14c-.15.13-.1.16-.07.34s-.3.22-.44.12c.06.1.08.27,0,.32a.15.15,0,0,1-.05-.12c-.32.13-.19.49-.48.52a.17.17,0,0,0-.11-.05,3,3,0,0,1,.34-.3c-.12-.12-.29,0-.35-.29,0,.22,0,.62-.22.71l-.07,0v0a.14.14,0,0,0-.07.11.36.36,0,0,0-.15.08c-.12-.09-.23.11-.31.18.14.13,0,.21.23.23,0,0,0,0,0-.09a.08.08,0,0,0,0,0v0l.18-.2c0,.13,0,.25-.15.26.05.12.1.25.12.32-.3-.09-.59,0-.74-.09-.15.3-.48.58-.36,1,0,.1-.15,0-.21,0s.05-.11,0-.16c-.06.19-.36.4-.21.61-.24.08-.07-.26-.26,0l0-.09c-.72.15-.25,1.17-1.1,1.28a.16.16,0,0,1,.12,0c-.72.39-1,1.29-1.79,1.58-.21.1-.11.23-.12.41l-.18-.11v.33c-.11.35-.76,0-.81.56l.13.06c-.12.09-.27.39-.36.26,0,0,.06.14,0,.13l-.08-.08-.12.39c-.26.14-.28-.33-.58-.06-.08.14-.08.53,0,.54a.2.2,0,0,1,.24,0l-.06.14c.2.24.36.55.76.46l0-.3.16.05-.13.15c.18,0,.14-.12.13-.24a.27.27,0,0,0,.2.05l0-.38c.1.07.1.25.26.19,0-.18-.28-.13-.21-.32.18,0,.24.13.25,0a.14.14,0,0,1,.07.16c0-.15.2-.25.12-.41.21,0,.25-.32.46-.1a.57.57,0,0,1,.05-.4c.11.39.3-.28.54,0-.13-.34.27-.48.33-.8,0,0,0,.09,0,.09s.22,0,.33-.07c-.18-.2-.06-.4-.09-.61.31.06.15.3.36.44-.16-.15.07-.38-.1-.46.21,0,.14,0,.35.07-.22-.25,0-.13,0-.35.26,0,.26.18.34,0C230.77,155.6,230.72,155.83,230.72,155.83Zm3.28-4.11h0l-.07.08A.4.4,0,0,0,234,151.72Zm.31-.31a.83.83,0,0,0-.14.13c-.06,0-.1-.09-.06-.12S234.22,151.42,234.31,151.41Zm-1.6-.28c0-.07.07-.06.11,0a.86.86,0,0,0-.07.1v0A.9.9,0,0,1,232.71,151.13Z" transform="translate(-210 -89)"/><path class="cls-4" d="M232.8,151.39a0,0,0,0,1,0,0h.06l0-.06Z" transform="translate(-210 -89)"/><path class="cls-4" d="M261.13,123.47h0Z" transform="translate(-210 -89)"/><polygon class="cls-4" points="28.85 58.39 28.82 58.35 28.82 58.41 28.85 58.39"/><path class="cls-4" d="M263.3,122.23h0Z" transform="translate(-210 -89)"/><path class="cls-4" d="M264.07,121.52l.15-.06Z" transform="translate(-210 -89)"/><path class="cls-4" d="M264.71,121l0-.07h0Z" transform="translate(-210 -89)"/><path class="cls-4" d="M255.84,130.2a0,0,0,0,0,0,0C255.8,130.31,255.82,130.26,255.84,130.2Z" transform="translate(-210 -89)"/><path class="cls-4" d="M258.21,127.2a.77.77,0,0,1,0,.15C258.25,127.31,258.29,127.28,258.21,127.2Z" transform="translate(-210 -89)"/><path class="cls-4" d="M253,133.36h0v0Z" transform="translate(-210 -89)"/><path class="cls-4" d="M258.06,127.47a.16.16,0,0,0,.13-.12C258.14,127.38,258.08,127.41,258.06,127.47Z" transform="translate(-210 -89)"/><path class="cls-4" d="M267.23,118.62l0,0,0,0Z" transform="translate(-210 -89)"/><path class="cls-4" d="M267.24,118.57l0,0S267.23,118.55,267.24,118.57Z" transform="translate(-210 -89)"/><path class="cls-4" d="M267.29,118.43l0,.1S267.31,118.48,267.29,118.43Z" transform="translate(-210 -89)"/><path class="cls-4" d="M266.41,119.31l0,.06A.07.07,0,0,0,266.41,119.31Z" transform="translate(-210 -89)"/><path class="cls-4" d="M266.2,119.55c.06,0,.24,0,.29-.14l0,0C266.49,119.47,266.17,119.42,266.2,119.55Z" transform="translate(-210 -89)"/><path class="cls-4" d="M264.64,119.9l.23-.16c-.09,0-.2,0-.13-.14C264.35,119.68,264.91,119.67,264.64,119.9Z" transform="translate(-210 -89)"/><path class="cls-4" d="M264,120.41c.08-.12-.08-.07-.1-.11C263.85,120.42,263.85,120.44,264,120.41Z" transform="translate(-210 -89)"/><path class="cls-4" d="M259.68,124.7l-.11-.13C259.51,124.66,259.61,124.61,259.68,124.7Z" transform="translate(-210 -89)"/><polygon class="cls-4" points="49.5 37.16 49.65 37.16 49.58 37.01 49.5 37.16"/><polygon class="cls-4" points="48.14 36.76 48.15 36.71 48.06 36.89 48.14 36.76"/><path class="cls-4" d="M251,133l.18.12C251.18,133.05,251,132.87,251,133Z" transform="translate(-210 -89)"/><path class="cls-4" d="M248,136.27c-.11,0-.25,0-.23.12C247.88,136.33,248,136.32,248,136.27Z" transform="translate(-210 -89)"/><polygon class="cls-4" points="28.46 56.34 28.47 56.23 28.39 56.39 28.46 56.34"/><path class="cls-4" d="M266.83,246.81c0-.06-.13-.14-.15-.08l.13.19Z" transform="translate(-210 -89)"/><path class="cls-4" d="M266.25,246.82a.76.76,0,0,0,.3.42c-.11-.2,0-.15-.17-.38,0-.06.13,0,.18,0s.1,0,0-.15-.26,0-.22.17C266.31,246.91,266.28,246.85,266.25,246.82Z" transform="translate(-210 -89)"/><path class="cls-4" d="M262,250.83h0Z" transform="translate(-210 -89)"/><path class="cls-4" d="M259.47,253.38s0,0,0-.06S259.46,253.37,259.47,253.38Z" transform="translate(-210 -89)"/><path class="cls-4" d="M258.87,253.66h0S258.86,253.64,258.87,253.66Z" transform="translate(-210 -89)"/><path class="cls-4" d="M262,250.83l-.11,0C262,250.91,262,250.85,262,250.83Z" transform="translate(-210 -89)"/><path class="cls-4" d="M266.1,247.78a.11.11,0,0,0,0-.08l0,.05Z" transform="translate(-210 -89)"/><path class="cls-4" d="M263,249.54v0l-.05-.08Z" transform="translate(-210 -89)"/><path class="cls-4" d="M263.78,248.63s.11.15.17.22-.07-.11-.06-.14Z" transform="translate(-210 -89)"/><path class="cls-4" d="M265.35,247.45v0Z" transform="translate(-210 -89)"/><path class="cls-4" d="M262.35,250.15l-.06,0Z" transform="translate(-210 -89)"/><path class="cls-4" d="M240.12,276.08l0,0Z" transform="translate(-210 -89)"/><path class="cls-4" d="M238.46,276.47v0l-.08-.07Z" transform="translate(-210 -89)"/><path class="cls-4" d="M257.92,254.32h0S257.92,254.3,257.92,254.32Z" transform="translate(-210 -89)"/><path class="cls-4" d="M251,262c.2,0,0,.29.29.29C251.19,262.23,251.15,262,251,262Z" transform="translate(-210 -89)"/><path class="cls-4" d="M266.06,247.78l0,0S266.06,247.8,266.06,247.78Z" transform="translate(-210 -89)"/><path class="cls-4" d="M251.26,262.27Z" transform="translate(-210 -89)"/><path class="cls-4" d="M256.24,256.3l.08,0Z" transform="translate(-210 -89)"/><path class="cls-4" d="M257.76,255.07h0Z" transform="translate(-210 -89)"/><path class="cls-4" d="M255.75,257.21s-.05,0-.06,0h0S255.71,257.21,255.75,257.21Z" transform="translate(-210 -89)"/><path class="cls-4" d="M255,258h0v0Z" transform="translate(-210 -89)"/><path class="cls-4" d="M242.22,273.7a.65.65,0,0,1-.16-.09C242.17,273.69,242.11,273.84,242.22,273.7Z" transform="translate(-210 -89)"/><path class="cls-4" d="M266,247.7s.05.06,0,.08l0,0Z" transform="translate(-210 -89)"/><path class="cls-4" d="M256.83,258.28l-.14.1A.45.45,0,0,0,256.83,258.28Z" transform="translate(-210 -89)"/><path class="cls-4" d="M247.32,268.2v0S247.33,268.22,247.32,268.2Z" transform="translate(-210 -89)"/><path class="cls-4" d="M256.38,258.76a.33.33,0,0,0-.16,0l0,.05Z" transform="translate(-210 -89)"/><path class="cls-4" d="M242.06,273.61Z" transform="translate(-210 -89)"/><path class="cls-4" d="M241.65,274.72c.11-.11-.13-.22-.21-.34.07-.19.19.06.33.1,0-.13-.08-.35,0-.41s.06,0,.08.07c-.06-.23.25-.28.16-.56l.06,0a1.6,1.6,0,0,1-.27-.22c.05-.05,0-.2.12-.11,0,0,0,.08,0,.13v-.11c.22.12,0,.13.12.25,0-.15,0-.41.14-.45.18.14-.12.25.13.28l-.18.06c.36.16-.09.06.28.24.2-.12.08-.26.29-.38-.06-.13-.15-.12-.21-.25.05-.39.6.22.53-.17-.07-.15-.27-.36,0-.38l.15.22c.17-.14-.19-.35.1-.4,0,.1-.06.19,0,.19.25,0,0-.18,0-.27l.18.15c.14-.2.19-.5.33-.72.05.06.07.14.16.14a1.5,1.5,0,0,1,.81-.62l-.06-.22s.1,0,.11.07-.09-.09-.11-.19.15,0,.16.08c0-.27.15-.69.47-.71v.07c.18-.08-.17-.43.08-.42v.05c.32-.23.48-.66.9-.67-.17-.24.35-.19.08-.48.29,0,.3.07.61-.07.07,0-.1-.26-.06-.36l.16.14-.07-.25.23.12,0-.11a.17.17,0,0,1-.16-.05c0-.18.35-.17.43-.1l.11-.38c.06.07,0,.13.05.2,0-.28.18.13.16-.13-.05,0-.08-.1-.11-.13.15,0,.28-.12.34-.26l.09.12a7.45,7.45,0,0,0,.53-.67c-.12,0-.29-.16-.25-.24l.19.13c-.06-.14-.12,0-.17-.19s.24.12.25.21l0-.15c.06,0,.06.09.12.15-.07-.13.32,0,.2-.23l0,0a6.42,6.42,0,0,0,.39-.54c-.14-.14,0-.18-.1-.33.16-.09.4-.13.54-.3s-.09-.14-.13-.27c.14.11.27-.05.29.11a1.7,1.7,0,0,0,.31-.59c-.08,0-.13,0-.16-.07s.15-.05.2,0v0c0-.45.94-.27.87-.72v0l.07-.35c.11-.08,0,.15.18.15,0-.43.38-.34.42-.67.52.2.47-.56.9-.54l-.1-.07c0-.13.11,0,.17,0s-.13,0-.15-.1c.31-.54,1-.79,1.49-1.17.18-.15-.37-.53,0-.54l.11.21c.11-.52.64-.68.78-1.16,0,.05.07.1,0,.13.19,0,.25-.25.15-.34.06,0,.1.07.18.08s0-.31.16-.24,0,.06,0,.08.21-.2,0-.29c.19-.06.16-.29.34-.31-.1-.21.27-.14.07-.37.22.22.38-.05.35-.22,0,.09.13,0,.2.11a.18.18,0,0,0,0-.3c.43.09.09-.53.53-.3a4.76,4.76,0,0,1,.44-1c.21.22-.23.28,0,.49.12-.31.05-.62.31-.79.09,0,.07.12.09.18.12-.31.42-.42.49-.73a.15.15,0,0,1,0,.1s.12-.07,0-.16v.07c-.21-.08-.17-.45-.24-.53.23.34.26-.13.53.32a.22.22,0,0,0-.09-.18c.06,0,.11,0,.15.12.08-.19-.08-.24,0-.37.05.05.05.09.09.16,0-.16-.07-.31.08-.38s.07.06,0,.09c.16-.2,0-.56.32-.68.16.26.14,0,.33.16l0-.16-.13,0c.09-.09,0-.31.17-.33v.14l.14-.21-.17,0c0-.18-.24-.21-.07-.28,0,0,.09-.1.25-.05h0c0-.1,0-.21.08-.23s.19.2.24.23c-.11-.19.17-.27.06-.48a.57.57,0,0,0,.14.16l-.09-.16c.08,0,.11,0,.18.09.15-.12-.28-.18,0-.25,0,0,0,0,0,.08.21-.11.21-.38.41-.47.23.13-.07.17.13.27.17-.25.19-.65.42-.81h-.05c-.24-.27.27,0,.24-.25,0,0,.12.17.09.14.18-.1.21-.35.32-.64l0,.09c.14,0,.24-.18.36-.24-.05-.09,0-.14-.11-.2.64.09.28-.72.83-.66,0,0,0,.13,0,.1l.13-.26c-.13-.1-.1,0-.23-.08a.24.24,0,0,1,0-.25c0,.16.18.17.29.19-.05,0-.07-.08-.11-.11.31.09-.22-.23.06-.25l.05.06c0-.08,0-.21.07-.25s0,.12.11.22c.07-.09-.1-.4.11-.35,0,.07,0,.12,0,.19.23.06.2,0,.28,0h0l.21-.08h-.08c-.25-.43.14-.27,0-.63.09.34.1.14.25.29s.17,0,.2,0c-.06-.18.2,0,.11-.28,0,0,.07-.07.18.06,0-.12-.1-.06-.16-.12,0-.29.5-.13.45-.54.06-.25-.07-.44,0-.67.13,0,.14.21.14.21.15,0,.19-.09.21-.22,0,0,.08.07.16.1s-.14-.21,0-.23a2,2,0,0,1,.14.25c0-.12,0-.28,0-.4.1.06.08.17.11.25.05-.12.14-.3,0-.45h-.1s.13.09.13.14-.15.06-.2,0l0-.08c-.34-.21-.16.26-.28.36l-.16-.24.06.27c-.08,0-.21-.12-.19-.2-.17,0,0,.14-.17.1t0,0v.13c0-.06-.16-.12-.09-.14-.25,0-.05.37-.26.27v0c-.11.26.14.16.18.47l-.47-.25.13.16s-.07.05-.12,0c0,.17.08,0,.13.19-.22,0-.18.32-.44.12.08.14.17,0,.16.17-.29-.22-.07.16-.27.14s0-.17-.16-.2c.17.27-.21.13-.24.24.18.18-.08.23-.13.42-.06-.07-.32.14-.49.19l0,0c.16.19,0,.28,0,.4a.34.34,0,0,1-.14-.25l-.08.08a.19.19,0,0,1,0,.2l-.11-.14c-.1.11,0,.37-.27.42.12.13.46.22.41.45-.08-.06-.2-.16-.19-.23s0,.1,0,.1l-.06-.17c-.11,0,.06.12,0,.16s-.11,0-.18-.1.08,0,.06-.07a.3.3,0,0,1-.29,0c.06,0,.13.13.11.18s-.16-.07-.27-.05c.05.09-.09.09.06.23,0,0-.11,0-.16,0s-.23.28,0,.36h0c0,.32-.44.31-.55.55l-.05,0c-.05.17-.2.28-.16.46s-.16,0-.21-.08c0,.12,0,.18-.19.22,0-.16-.1,0,0-.14-.15.07-.25,0-.22.26a.13.13,0,0,0-.25,0h.16a.33.33,0,0,1-.15.16l-.14-.18c-.41,0,0,.72-.53.57.06.17.2,0,.28.14-.11.08-.45,0-.48,0-.23.06.12.36-.08.45.07,0,.25.17.2.33s-.36-.11-.35-.22.05,0,.07,0,0-.12-.08-.14l.05.07c-.11,0-.24.14-.3,0,0,.13.06.12.15.09-.21,0-.2.2-.38.29,0,0,.14,0,.12.07-.26.13,0,.19-.07.35-.16,0-.19-.23-.24,0-.14,0-.18-.13-.19-.21,0,.23-.29.16-.38.21V254a.2.2,0,0,1-.07.12l.16.08c-.06,0-.09,0-.14,0,0,.11.23.16.26.33-.11,0-.08.22-.25.09.2-.11-.18-.13-.08-.29q0,.06-.09.09a.05.05,0,0,1,0-.05c-.28,0,.12.23,0,.39-.07-.1-.2-.12-.2-.08s.17.11.19.23c-.17,0-.06.16-.11.21l.08,0c.07.1,0,.14,0,.24-.08-.06,0-.11,0-.11.08.22-.33,0-.33.23-.11,0-.17-.15-.25-.14,0,.23-.25,0-.28.24.16.07.14,0,.17.23l.11-.29.05.3c.06-.06.05-.2.1-.22,0,.15,0,.12.15.18-.27-.08-.06.27-.28.26l-.29-.28c-.27,0-.1.41-.36.54h.11c.09.13-.1.14-.11.24a.52.52,0,0,0-.25-.12c.07.07-.15.14,0,.34l-.21,0c-.2.11.11.45-.07.57-.06-.15-.19-.14-.18-.32,0,.05-.11.08,0,.15-.09,0,0,.26-.14.22,0,.06.12.17.06.22l-.05-.05c.05.05,0,.15.14.21-.45-.13-.39.46-.78.35a2.48,2.48,0,0,1-.26.42s0-.05,0-.06c-.22.06.21.35-.05.42s0-.17-.11-.17c-.35-.29-.14.23-.43.16v0c-.19,0-.06.31-.21.42l0,0a.91.91,0,0,1-.1.64c-.09-.16,0-.12-.17-.22,0,.08.22.18.15.33a.78.78,0,0,1-.39-.12l.1-.11c-.23-.11-.13.14-.21.17l-.08-.08c-.13.19.07.38-.11.54l.07,0c.11.28-.18,0-.13.21l-.23-.15a2,2,0,0,1-.09.55,1.62,1.62,0,0,1,0-.57c-.06.06-.19.23-.12.36,0-.05,0-.12,0-.12a.47.47,0,0,1-.06.52c-.36-.38-.41.25-.79.06-.07.36-.48.39-.71.68.39.18-.06.08.26.35,0,.08-.06.1-.09.09h-.35c-.13,0,0-.12-.09-.18-.15.12-.18-.06-.35-.05.13.09.12.2,0,.23l.24,0c0,.34-.4-.08-.42.26l0-.15c0,.15-.34.36-.18.68,0,0-.16-.07-.14-.13-.25.2-.22.76-.54.8l-.06-.09c0,.06.07.21-.05.19s-.06-.09-.09-.07,0,.24-.07.25l0-.12c-.31.13-.12.53-.24.77a.5.5,0,0,0-.58,0l0,0c-.27.24-.23.62-.38.95-.38-.08-.57.42-.94.53.08,0,.17.17.15.23s0,.31-.19.11l0,0c-.24-.14-.3,0-.39.11l.25.26c-.61-.11-.45.76-.91.58,0,.11-.06.19,0,.3l-.13-.13a1.23,1.23,0,0,0-.43.42l-.07-.13c-.11.1.28.52.19.63l-.24-.17c-.18.2-.55.23-.54.6,0,0-.08-.1-.06-.14s-.48.22-.15.46c-.2-.17-.21.19-.23.37l-.12-.15c.09.26.14.31.07.48,0,0-.13-.08-.06-.09-.16,0,.06.2-.12.25l0-.13c-.11.1-.05.13,0,.28s-.21.16-.35.06c.06.09.11.24,0,.26s-.06-.08-.07-.11c-.25.08-.07.4-.32.39a.28.28,0,0,0-.1-.06c.13-.13.24-.23.24-.21s-.25,0-.35-.28c0,.18.09.52-.07.57l-.06,0v0s-.05,0,0,.08a.27.27,0,0,0-.12.06c-.12-.09-.18.07-.23.12.14.12.05.17.23.21,0,0,0,0,0-.06s0,0,0,0v0l.11-.15c0,.11.05.21-.08.2a2.77,2.77,0,0,1,.15.29c-.26-.11-.5-.07-.64-.16-.07.24-.31.44-.14.79,0,.07-.13,0-.19,0s0-.08,0-.13c0,.15-.23.3-.07.49-.19,0-.1-.22-.23,0l0-.07c-.59,0,0,.95-.72,1a.12.12,0,0,1,.1,0c-.54.25-.62,1-1.26,1.13-.16.07-.05.19,0,.34l-.17-.11.06.28c0,.28-.64-.06-.59.38l.12.07c-.09.05-.16.29-.27.17s.09.13,0,.11l-.08-.08,0,.32c-.19.09-.29-.32-.5-.12,0,.11,0,.44.1.46a.17.17,0,0,1,.21,0l0,.11c.22.23.41.51.73.49l0-.26.15.07-.09.11c.16,0,.1-.09.07-.19a.24.24,0,0,0,.18.06l-.11-.32c.1.07.13.22.25.19,0-.16-.25-.14-.23-.3.16,0,.23.14.2,0a.17.17,0,0,1,.1.14c0-.12.12-.19,0-.33.19.06.16-.24.38,0a.5.5,0,0,1,0-.34c.17.35.21-.19.47.1-.16-.3.15-.38.15-.64,0,0,0,.08,0,.08s.18,0,.27,0c-.18-.19-.12-.35-.18-.53.28.08.18.27.39.41-.16-.14,0-.31-.17-.4.18,0,.11,0,.31.11-.23-.24,0-.11-.07-.31.21,0,.25.19.28,0C241.66,274.54,241.65,274.72,241.65,274.72Zm2.1-3.09h0l0,.06Zm.21-.23a.41.41,0,0,0-.1.09c-.06,0-.1-.09-.07-.11S243.89,271.39,244,271.4Zm-1.42-.43c0-.05.05,0,.08,0l0,.08v0Z" transform="translate(-210 -89)"/><path class="cls-4" d="M242.66,271.21v0h.05l0-.05Z" transform="translate(-210 -89)"/><path class="cls-4" d="M262.08,250.82h0Z" transform="translate(-210 -89)"/><polygon class="cls-4" points="37.15 179.51 37.12 179.48 37.13 179.53 37.15 179.51"/><path class="cls-4" d="M263.73,250l0,0Z" transform="translate(-210 -89)"/><path class="cls-4" d="M264.26,249.51l.12,0Z" transform="translate(-210 -89)"/><path class="cls-4" d="M264.72,249.16l-.05-.07h0Z" transform="translate(-210 -89)"/><path class="cls-4" d="M258.72,255.92v0C258.7,256,258.72,256,258.72,255.92Z" transform="translate(-210 -89)"/><path class="cls-4" d="M260.23,253.64a.56.56,0,0,1,0,.13S260.31,253.72,260.23,253.64Z" transform="translate(-210 -89)"/><path class="cls-4" d="M256.84,258.27h0v0Z" transform="translate(-210 -89)"/><path class="cls-4" d="M260.15,253.86a.09.09,0,0,0,.08-.09S260.15,253.81,260.15,253.86Z" transform="translate(-210 -89)"/><path class="cls-4" d="M266.46,247.42l0,0,0,0Z" transform="translate(-210 -89)"/><path class="cls-4" d="M266.47,247.38v0S266.45,247.36,266.47,247.38Z" transform="translate(-210 -89)"/><path class="cls-4" d="M266.48,247.26v.08S266.51,247.31,266.48,247.26Z" transform="translate(-210 -89)"/><path class="cls-4" d="M265.88,247.91l.05.05A.23.23,0,0,0,265.88,247.91Z" transform="translate(-210 -89)"/><path class="cls-4" d="M265.74,248.09c.05,0,.21,0,.23-.09l0,0C266,248.06,265.69,248,265.74,248.09Z" transform="translate(-210 -89)"/><path class="cls-4" d="M264.46,248.2l.17-.1c-.07,0-.18-.07-.13-.14C264.17,248,264.66,248,264.46,248.2Z" transform="translate(-210 -89)"/><path class="cls-4" d="M264,248.56c0-.1-.08-.07-.11-.11S263.88,248.57,264,248.56Z" transform="translate(-210 -89)"/><path class="cls-4" d="M261.05,251.7l-.12-.13C260.89,251.64,261,251.62,261.05,251.7Z" transform="translate(-210 -89)"/><polygon class="cls-4" points="51.15 163.91 51.28 163.93 51.19 163.79 51.15 163.91"/><polygon class="cls-4" points="49.91 163.42 49.92 163.37 49.87 163.51 49.91 163.42"/><path class="cls-4" d="M255,257.73l.17.13C255.22,257.79,255.05,257.62,255,257.73Z" transform="translate(-210 -89)"/><path class="cls-4" d="M253.08,260.15c-.1,0-.22,0-.17.08C253,260.19,253.07,260.2,253.08,260.15Z" transform="translate(-210 -89)"/><polygon class="cls-4" points="36.45 177.73 36.44 177.64 36.41 177.76 36.45 177.73"/><path class="cls-4" d="M239.34,277.19s.14-.13.11-.13l-.18.15Z" transform="translate(-210 -89)"/><path class="cls-4" d="M239.54,276.8a1.7,1.7,0,0,0-.39.33c.17-.14.11-.07.31-.23,0,0,0,.07-.08.13s0,.06.09,0,.09-.17,0-.1A.5.5,0,0,1,239.54,276.8Z" transform="translate(-210 -89)"/><path class="cls-4" d="M238.35,275.08v0Z" transform="translate(-210 -89)"/><path class="cls-4" d="M237.55,274.08l0,0Z" transform="translate(-210 -89)"/><path class="cls-4" d="M237.57,273.75v0S237.59,273.74,237.57,273.75Z" transform="translate(-210 -89)"/><path class="cls-4" d="M238.35,275.08l0-.08C238.32,275.05,238.35,275.06,238.35,275.08Z" transform="translate(-210 -89)"/><path class="cls-4" d="M239,277l.06,0h0Z" transform="translate(-210 -89)"/><path class="cls-4" d="M238.87,275.35h0l.07-.06Z" transform="translate(-210 -89)"/><path class="cls-4" d="M239.2,275.64s-.14.12-.2.17l.11-.08Z" transform="translate(-210 -89)"/><path class="cls-4" d="M239.44,276.36h0Z" transform="translate(-210 -89)"/><path class="cls-4" d="M238.69,275.1l0-.05Z" transform="translate(-210 -89)"/><path class="cls-4" d="M229.21,267.49l0,0Z" transform="translate(-210 -89)"/><path class="cls-4" d="M229.54,266.47h0l.08-.07Z" transform="translate(-210 -89)"/><path class="cls-4" d="M237.47,273.29h0S237.48,273.29,237.47,273.29Z" transform="translate(-210 -89)"/><path class="cls-4" d="M234.8,270.78c-.09.15-.2.1-.29.28C234.56,271,234.76,270.89,234.8,270.78Z" transform="translate(-210 -89)"/><path class="cls-4" d="M239,277h0Z" transform="translate(-210 -89)"/><path class="cls-4" d="M234.51,271.06h0v0Z" transform="translate(-210 -89)"/><path class="cls-4" d="M236.74,272.72l-.05.06Z" transform="translate(-210 -89)"/><path class="cls-4" d="M237,273.4v0S237,273.39,237,273.4Z" transform="translate(-210 -89)"/><path class="cls-4" d="M236.3,272.65s0,0,0,0h0S236.31,272.63,236.3,272.65Z" transform="translate(-210 -89)"/><path class="cls-4" d="M236,272.39l0,0h0Z" transform="translate(-210 -89)"/><path class="cls-4" d="M230.06,268.23a1.34,1.34,0,0,1,.11-.14C230.08,268.19,230,268.19,230.06,268.23Z" transform="translate(-210 -89)"/><path class="cls-4" d="M239,276.9,239,277h0Z" transform="translate(-210 -89)"/><path class="cls-4" d="M235.21,273.7l0-.06S235.19,273.69,235.21,273.7Z" transform="translate(-210 -89)"/><path class="cls-4" d="M231.94,270.1h0S231.92,270.12,231.94,270.1Z" transform="translate(-210 -89)"/><path class="cls-4" d="M235,273.54a.4.4,0,0,0,.08-.12l0,0Z" transform="translate(-210 -89)"/><path class="cls-4" d="M230.17,268.09Z" transform="translate(-210 -89)"/><path class="cls-4" d="M229.58,268.13c0,.05.19-.15.3-.24s-.11.15-.19.26c.08,0,.27-.16.28-.13l-.07.08c.17-.11.1.08.31-.06l0,0,.24-.25s.15-.07,0,.05-.06,0-.1.06l.07,0c-.15.18-.08,0-.21.15.09,0,.27-.11.25,0s-.12,0-.23.17l0-.11c-.22.29,0,0-.25.26,0,.11.14,0,.15.09.11-.08.13-.14.24-.22s-.36.47-.08.32c.13-.1.34-.29.28-.14l-.21.17c0,.07.3-.24.23-.06s-.1,0-.11.05c-.11.18.13-.08.16-.05l-.16.17c.08,0,.26,0,.36,0a.43.43,0,0,0-.15.15c.16,0,.15.19.13.37l.17-.11s0,.08-.09.1.1-.09.17-.13-.06.1-.12.13c.18-.06.42-.1.32.11l0,0c0,.1.34-.24.25-.06h0c0,.16.27.14.13.43.22-.19,0,.18.3-.09-.09.19-.16.23-.18.4s.21-.15.27-.15l-.15.15.19-.12-.16.19h.06A.38.38,0,0,1,232,270c.11,0,0,.2-.09.27l.22,0-.15.09c.2-.11-.15.16,0,.07a1.42,1.42,0,0,1,.13-.12c-.07.11,0,.16.05.16l-.11.1c0,.09.19.09.26.16s.2-.24.24-.23l-.15.16c.11-.08,0-.08.19-.17s-.16.2-.23.23l.09,0-.14.12c.11-.08-.11.22.09.07l-.05.05c.07.07.16.05.23.11.14-.14.13-.08.26-.17,0,.08-.06.24,0,.28s.13-.1.23-.16c-.13.12-.06.16-.18.22.08.05.11.06.29,0s0-.09.1-.12,0,.08-.08.14h0c.28-.1-.15.56.18.38h0l.21-.06c0,.06-.11.07-.17.18.29-.13.1.15.3.08-.31.42.21.16,0,.46l.09-.08c.1-.07,0,.07,0,.1s.06-.1.12-.13c.25.05.18.44.26.67,0,.08.48-.4.34-.13l-.18.14c.31-.07.23.24.5.2,0,0-.09.07-.1.06s.08.1.18,0-.08.09-.12.15.21-.09.1,0a.07.07,0,0,1-.05,0c.07,0,.05.09.17-.06,0,.11.14,0,.1.14.17-.13,0,.14.22-.06-.23.22-.11.25,0,.18-.07,0,0,.09-.15.17s.1,0,.21-.1c-.21.31.33-.1,0,.27a1.35,1.35,0,0,1,.5,0c-.22.21-.11-.07-.33.16.16,0,.4-.15.42,0s-.11.08-.15.11c.16,0,.13.17.31.12l-.07.05s0,.06.1,0h0c.12-.16.35-.24.43-.31-.31.26,0,.14-.4.46a.53.53,0,0,0,.15-.12s0,.08-.13.14c.1,0,.19-.13.23-.08a.85.85,0,0,1-.14.11c.12-.07.24-.14.23-.06s-.06.06-.07.05.36-.13.33,0c-.23.18,0,.09-.22.27l.09,0,.08-.1s.19-.06.15,0l-.09,0,.09,0,0-.1c.12-.06.22-.23.22-.14s0,0-.06.16h0c.08,0,.16-.08.14,0l-.25.23c.17-.13.12,0,.31-.1a.59.59,0,0,0-.16.15l.13-.11c0,.05,0,.07-.12.15s.22-.25.18-.09l-.06,0c0,.11.18,0,.17.14-.17.2-.09,0-.23.17.11,0,.37-.06.4,0v0c.27-.25-.07.18.09.09a.56.56,0,0,0-.13.11c0,.08.16,0,.32,0l-.08,0c0,.09,0,.11,0,.17a.45.45,0,0,0,.17-.13c-.29.46.38,0,.15.37l-.08.05h.14c.1-.12.05-.08.13-.18s.14-.09.16-.07-.18.18-.23.26.08-.07.11-.11c-.16.23.23-.22.15,0l-.06.05s.14-.07.15,0-.09,0-.19.14.3-.18.2,0-.07,0-.12,0c-.12.18-.08.15-.09.19h0l0,.11,0-.05c.38-.3.14,0,.41-.16-.26.16-.13.12-.28.26a.78.78,0,0,1-.1.15c.14-.09-.06.13.15,0,0,.05,0,0-.11.14.07,0,.08-.08.14-.14.21-.11-.09.3.2.15s.32-.18.45-.2a.53.53,0,0,1-.19.15c0,.1,0,.11.08.08a.89.89,0,0,0-.13.14s.19-.16.15-.06L239,277l.25-.1a.64.64,0,0,1-.21.15.38.38,0,0,0,.3-.11l0-.07s-.1.12-.13.14,0-.09,0-.13l.05,0c.26-.29-.12,0-.14-.08l.22-.19-.21.13c0-.06.15-.18.2-.19s-.09,0,0-.09l0,0-.09,0c.05,0,.14-.14.13-.1.07-.16-.23.08-.09-.09h0c-.13,0-.15.14-.38.26l.34-.4-.16.14s0,0,.06-.09c-.13.08-.06.07-.17.15.1-.17-.16,0,.07-.27-.12.1,0,.12-.17.16.25-.26-.08,0,0-.15s.1,0,.19-.16c-.25.2,0-.11-.08-.1-.18.18-.13,0-.23,0,.06-.06,0-.18,0-.28l0,0c-.19.17-.19.09-.26.1a.75.75,0,0,1,.22-.17l0,0a.23.23,0,0,1-.14.07l.14-.12s-.23.08-.19-.06c-.13.12-.31.38-.44.41a1.24,1.24,0,0,1,.22-.2s-.07,0-.05,0l.13-.09c0-.07-.11.09-.11.06s.05-.08.13-.16,0,.06,0,0a.36.36,0,0,1,.1-.2c-.05.06-.13.13-.16.13s.1-.13.13-.2,0,0-.17.11c0,0,0-.08.09-.13s-.11-.07-.24.1v0h0c-.2.08,0-.21-.17-.22l0,0c-.09,0-.12-.06-.25,0s.07-.11.13-.17-.12.06-.08-.06.06-.08.09,0,.07-.16-.1-.07c.13-.11.13-.18.07-.17l-.06.12s-.05,0-.05-.06l.17-.15c.12-.27-.47.19-.2-.19-.13.09,0,.12-.19.23,0-.06.18-.32.17-.34s-.28.19-.27.08a.85.85,0,0,1-.29.24c0-.06.2-.28.27-.31s0,0,0,.05a.19.19,0,0,0,.12-.1l-.06.05c0-.07,0-.11.09-.19a.15.15,0,0,0-.11.13c0-.13-.07-.08-.06-.18l-.09.1c0-.13-.14.08-.21.06s.22-.2.1-.17a.41.41,0,0,1,.2-.19c-.15.06,0-.15,0-.2l.07,0s0,0-.06,0l-.1.12s0,0,0-.09-.18.2-.31.28c0-.08-.12,0,0-.15,0,.11.15-.16.22-.14s0,0,0,0l.05,0c.08-.18-.2.15-.25.09s.15-.17.12-.16-.13.15-.22.19-.08,0-.09,0v.05c-.1.08-.1.05-.16.05s.07,0,.09-.06c-.18.12.1-.22,0-.15,0-.08.16-.16.19-.22-.16.07.07-.16-.07-.11a.46.46,0,0,1-.21.18H237l-.22.12s.12,0,.12,0-.09,0-.17.15c.14-.21-.17,0-.08-.12l.29-.28c.07-.18-.24.05-.24-.09l0,.08c-.12.1,0,0-.12,0a.92.92,0,0,0,.17-.21c-.07.07,0,0-.24.13l.09-.16c0-.1-.33.21-.35.12s.16-.17.27-.21,0-.05-.08,0-.18.08-.1,0c-.05,0-.15.13-.16.11l0-.05c0,.05-.09,0-.18.15.24-.34-.17-.13,0-.43a.36.36,0,0,1-.19-.05s0-.05,0,0c0-.14-.3.24-.26.09s.12-.06.16-.13c.31-.32-.11,0,0-.24h0c.08-.14-.19.05-.22,0l0,0a.57.57,0,0,1-.39.12.86.86,0,0,0,.2-.18s-.19.21-.27.2a2.13,2.13,0,0,1,.22-.3l0,0c.16-.19-.05,0,0-.09l.08-.07c-.08,0-.28.15-.32.07l-.05.07c-.23.15.07-.14-.1,0l.18-.2a1.91,1.91,0,0,1-.34.1,2.44,2.44,0,0,1,.4-.2s-.09-.06-.19,0,.08,0,.06,0c-.18.12-.29.15-.33.11.39-.36,0-.21.24-.53-.21.06-.09-.21-.2-.28-.26.32,0,0-.33.28,0,0,0,0,0,0l.11-.24c.07-.1.09,0,.15-.11s.11-.14.16-.25c-.1.11-.17.13-.16.07l-.1.17c-.22.09.2-.3,0-.21l.11-.07c-.09,0-.12-.13-.39.07,0,0,.1-.13.14-.13s-.43.07-.34-.14l.07-.06s-.16.11-.1,0l.07-.07s-.16.08-.14,0l.1-.06c0-.17-.32.07-.43.06.21-.21.22-.34.22-.41l0,0c-.07-.11-.33,0-.5,0,.18-.28-.08-.27,0-.48a.51.51,0,0,1-.21.16c0-.06-.2.09,0-.09h0c.17-.21.08-.2.06-.24l-.27.25c.3-.45-.35-.08-.06-.46-.08,0-.1,0-.19.07l.14-.14c0-.09,0-.13-.13-.17l.12-.08s-.45.34-.49.31l.19-.21c-.07-.07.05-.31-.21-.2,0,0,.1-.08.12-.08s0-.26-.26,0c.19-.18,0-.09-.16,0l.14-.13c-.21.14-.25.19-.34.19s.1-.12.07-.07-.15.1-.12,0l.1-.07c0-.05-.06,0-.18.08s0-.1.08-.22c-.08.07-.2.14-.18.09a.28.28,0,0,1,.1-.08c0-.15-.25.07-.15-.1l.07-.09c0,.05.07.1.06.1s.11-.18.31-.32c-.12.06-.38.21-.35.12l0-.05h0s0,0,0,0,0-.06,0-.07,0-.1,0-.12c-.14.13-.14.09-.23.22h.05l0,0c-.08.05-.16.09-.1,0l-.25.19c.17-.21.22-.36.34-.49-.14,0-.19-.08-.48.14,0,0,.06-.1.09-.14s0,0,.08,0-.12-.07-.3.09c0-.12.19-.13.1-.16l.06-.05c.18-.39-.63.27-.38-.21a.3.3,0,0,1,0,.07c0-.29-.44-.13-.31-.52,0-.09-.11,0-.22.08l.14-.16-.21.13c-.18.06.26-.46,0-.3l-.09.11s-.15,0,0-.14-.11.1-.07,0l.08-.08-.2.06c0-.1.32-.29.26-.38a1,1,0,0,0-.34.21s0,.07-.1.15h-.06a2.43,2.43,0,0,0-.58.65l.18-.1-.1.12,0,0c-.09.12,0,0,.1,0a.79.79,0,0,0-.11.14l.26-.17c-.08.09-.19.15-.22.23.12-.08.18-.21.28-.25-.08.12-.17.2-.06.14a.53.53,0,0,1-.13.11c.09-.05.08,0,.21-.08-.1.14.11,0-.11.24a.76.76,0,0,1,.23-.11c-.29.21.06.09-.22.35.25-.2.19,0,.37-.09,0,0-.07.05-.06,0s-.05.12-.08.18a2.16,2.16,0,0,1,.42-.28c-.16.22-.25.21-.41.39.15-.15.21-.1.32-.23a1.22,1.22,0,0,1-.18.24c.25-.23.07,0,.23-.14-.08.15-.21.23-.1.2A.39.39,0,0,1,229.58,268.13Zm1.32.53h0l0,0Zm.08.08a.08.08,0,0,0,0,0c0-.05.09-.09.1-.08S231,268.69,231,268.74Zm.79-1.1s0,0,0,.06h0l0,0Z" transform="translate(-210 -89)"/><path class="cls-4" d="M231.57,267.8h0l0,0,.05,0Z" transform="translate(-210 -89)"/><path class="cls-4" d="M238.34,275.11h0l0,0Z" transform="translate(-210 -89)"/><polygon class="cls-4" points="21.78 181.08 21.82 181.05 21.78 181.07 21.78 181.08"/><path class="cls-4" d="M238.29,276l0,0Z" transform="translate(-210 -89)"/><path class="cls-4" d="M238.44,276.22l0,.08A.15.15,0,0,0,238.44,276.22Z" transform="translate(-210 -89)"/><path class="cls-4" d="M238.52,276.43l.06-.05h0Z" transform="translate(-210 -89)"/><path class="cls-4" d="M236.12,274.31h0Z" transform="translate(-210 -89)"/><path class="cls-4" d="M237.1,274.67l-.08,0S237,274.75,237.1,274.67Z" transform="translate(-210 -89)"/><polygon class="cls-4" points="25.21 184.71 25.21 184.71 25.21 184.7 25.21 184.71"/><path class="cls-4" d="M237,274.68s0,0,0,0S237,274.67,237,274.68Z" transform="translate(-210 -89)"/><path class="cls-4" d="M239.06,277.12h0l0,0Z" transform="translate(-210 -89)"/><path class="cls-4" d="M239.09,277.11h0S239.1,277.09,239.09,277.11Z" transform="translate(-210 -89)"/><path class="cls-4" d="M239.16,277.08l0,0S239.12,277.12,239.16,277.08Z" transform="translate(-210 -89)"/><path class="cls-4" d="M238.94,276.86l-.05.05Z" transform="translate(-210 -89)"/><path class="cls-4" d="M238.87,276.82s-.07.14,0,.13l0,0C238.81,277,239,276.75,238.87,276.82Z" transform="translate(-210 -89)"/><path class="cls-4" d="M239.25,276v.08c0-.06.1-.14.14-.13C239.49,275.72,239.29,276.06,239.25,276Z" transform="translate(-210 -89)"/><path class="cls-4" d="M239.18,275.75s.08-.07.11-.1A.16.16,0,0,0,239.18,275.75Z" transform="translate(-210 -89)"/><path class="cls-4" d="M238.12,274.67l.12-.12S238.2,274.59,238.12,274.67Z" transform="translate(-210 -89)"/><polygon class="cls-4" points="27.27 186.09 27.21 186.19 27.33 186.08 27.27 186.09"/><polygon class="cls-4" points="28.04 185.1 28.06 185.09 27.98 185.1 28.04 185.1"/><path class="cls-4" d="M236.21,272.32l-.15.16S236.28,272.3,236.21,272.32Z" transform="translate(-210 -89)"/><path class="cls-4" d="M235.28,271.69c.07-.09.1-.16,0-.1S235.25,271.7,235.28,271.69Z" transform="translate(-210 -89)"/><polygon class="cls-4" points="23.22 180.08 23.29 180.05 23.21 180.06 23.22 180.08"/><text class="cls-5" transform="translate(63.67 39.89)">L<tspan class="cls-6" x="3.17" y="0">o</tspan><tspan class="cls-7" x="6.81" y="0">r</tspan><tspan x="9.34" y="0">em </tspan><tspan class="cls-8" x="19.98" y="0">i</tspan><tspan x="21.84" y="0">ps</tspan><tspan class="cls-9" x="27.45" y="0">u</tspan><tspan x="30.78" y="0">m d</tspan><tspan class="cls-10" x="42.24" y="0">o</tspan><tspan class="cls-11" x="46.04" y="0">l</tspan><tspan class="cls-6" x="48.19" y="0">o</tspan><tspan x="51.83" y="0">r s</tspan><tspan class="cls-12" x="59.48" y="0">i</tspan><tspan x="61.51" y="0">t </tspan><tspan class="cls-13" x="66.28" y="0">a</tspan><tspan class="cls-14" x="69.57" y="0">m</tspan><tspan class="cls-15" x="74.75" y="0">e</tspan><tspan class="cls-16" x="77.8" y="0">t</tspan><tspan x="79.43" y="0">, </tspan><tspan class="cls-17" x="83.46" y="0">c</tspan><tspan class="cls-18" x="86.45" y="0">o</tspan><tspan x="90.17" y="0">ns</tspan><tspan class="cls-19" x="96.36" y="0">e</tspan><tspan class="cls-20" x="99.55" y="0">c</tspan><tspan class="cls-21" x="102.51" y="0">te</tspan><tspan x="107.8" y="0">t</tspan><tspan class="cls-22" x="110.08" y="0">u</tspan><tspan class="cls-23" x="113.59" y="0">r </tspan><tspan class="cls-24" x="0" y="6">a</tspan><tspan class="cls-25" x="3.29" y="6">d</tspan><tspan class="cls-26" x="7.4" y="6">i</tspan><tspan class="cls-27" x="9.25" y="6">p</tspan><tspan x="12.45" y="6">i</tspan><tspan class="cls-27" x="14.42" y="6">s</tspan><tspan x="17.05" y="6">ci</tspan><tspan class="cls-17" x="22.17" y="6">n</tspan><tspan x="25.68" y="6">g e</tspan><tspan class="cls-12" x="34.67" y="6">li</tspan><tspan class="cls-28" x="39.1" y="6">t</tspan><tspan class="cls-29" x="41.08" y="6">.</tspan><tspan class="cls-30" x="42.5" y="6"> </tspan><tspan class="cls-31" x="44.65" y="6">A</tspan><tspan x="48.28" y="6">tqui h</tspan><tspan class="cls-32" x="64.77" y="6">a</tspan><tspan class="cls-19" x="68.11" y="6">e</tspan><tspan x="71.29" y="6">c p</tspan><tspan class="cls-33" x="80.01" y="6">a</tspan><tspan class="cls-15" x="83.12" y="6">t</tspan><tspan class="cls-8" x="85.35" y="6">e</tspan><tspan class="cls-13" x="88.33" y="6">fa</tspan><tspan class="cls-20" x="94.13" y="6">c</tspan><tspan class="cls-34" x="97.09" y="6">t</tspan><tspan x="99.4" y="6">io qu</tspan><tspan class="cls-35" x="114.11" y="6">a</tspan><tspan x="117.62" y="6">si </tspan><tspan class="cls-7" x="0" y="12">r</tspan><tspan class="cls-21" x="2.53" y="12">e</tspan><tspan class="cls-36" x="5.58" y="12">r</tspan><tspan class="cls-7" x="8.35" y="12">u</tspan><tspan x="11.69" y="12">m </tspan><tspan class="cls-6" x="19.23" y="12">o</tspan><tspan class="cls-12" x="22.87" y="12">p</tspan><tspan class="cls-15" x="26.02" y="12">e</tspan><tspan class="cls-37" x="29.07" y="12">r</tspan><tspan class="cls-21" x="31.71" y="12">t</tspan><tspan class="cls-38" x="33.94" y="12">a</tspan><tspan class="cls-36" x="37.13" y="12">r</tspan><tspan class="cls-7" x="39.9" y="12">u</tspan><tspan x="43.23" y="12">m, c</tspan><tspan class="cls-7" x="55.47" y="12">u</tspan><tspan x="58.8" y="12">m qu</tspan><tspan class="cls-39" x="73.01" y="12">i</tspan><tspan x="75.16" y="12">d qu</tspan><tspan class="cls-40" x="88.22" y="12">i</tspan><tspan x="90.36" y="12">dque s</tspan><tspan class="cls-12" x="109.04" y="12">i</tspan><tspan x="111.07" y="12">t </tspan><tspan class="cls-37" x="0" y="18">a</tspan><tspan class="cls-12" x="3.45" y="18">p</tspan><tspan class="cls-15" x="6.6" y="18">e</tspan><tspan class="cls-41" x="9.65" y="18">r</tspan><tspan class="cls-12" x="12.41" y="18">i</tspan><tspan x="14.44" y="18">t</tspan><tspan class="cls-42" x="16.72" y="18">u</tspan><tspan class="cls-43" x="20.24" y="18">r</tspan><tspan x="22.29" y="18">, d</tspan><tspan class="cls-26" x="30.23" y="18">e</tspan><tspan class="cls-37" x="33.21" y="18">f</tspan><tspan x="35.87" y="18">i</tspan><tspan class="cls-44" x="37.84" y="18">n</tspan><tspan class="cls-12" x="41.6" y="18">i</tspan><tspan class="cls-34" x="43.63" y="18">t</tspan><tspan x="45.94" y="18">io </tspan><tspan class="cls-45" x="53.99" y="18">e</tspan><tspan class="cls-46" x="57.2" y="18">s</tspan><tspan class="cls-47" x="59.88" y="18">t</tspan><tspan class="cls-48" x="61.86" y="18">.</tspan></text><text class="cls-5" transform="translate(63.67 104.86)">L<tspan class="cls-6" x="3.17" y="0">o</tspan><tspan class="cls-7" x="6.81" y="0">r</tspan><tspan x="9.34" y="0">em </tspan><tspan class="cls-8" x="19.98" y="0">i</tspan><tspan x="21.84" y="0">ps</tspan><tspan class="cls-9" x="27.45" y="0">u</tspan><tspan x="30.78" y="0">m d</tspan><tspan class="cls-10" x="42.24" y="0">o</tspan><tspan class="cls-11" x="46.04" y="0">l</tspan><tspan class="cls-6" x="48.19" y="0">o</tspan><tspan x="51.83" y="0">r s</tspan><tspan class="cls-12" x="59.48" y="0">i</tspan><tspan x="61.51" y="0">t </tspan><tspan class="cls-13" x="66.28" y="0">a</tspan><tspan class="cls-14" x="69.57" y="0">m</tspan><tspan class="cls-15" x="74.75" y="0">e</tspan><tspan class="cls-16" x="77.8" y="0">t</tspan><tspan x="79.43" y="0">, </tspan><tspan class="cls-17" x="83.46" y="0">c</tspan><tspan class="cls-18" x="86.45" y="0">o</tspan><tspan x="90.17" y="0">ns</tspan><tspan class="cls-19" x="96.36" y="0">e</tspan><tspan class="cls-20" x="99.55" y="0">c</tspan><tspan class="cls-21" x="102.51" y="0">te</tspan><tspan x="107.8" y="0">t</tspan><tspan class="cls-22" x="110.08" y="0">u</tspan><tspan class="cls-23" x="113.59" y="0">r </tspan><tspan class="cls-24" x="0" y="6">a</tspan><tspan class="cls-25" x="3.29" y="6">d</tspan><tspan class="cls-26" x="7.4" y="6">i</tspan><tspan class="cls-27" x="9.25" y="6">p</tspan><tspan x="12.45" y="6">i</tspan><tspan class="cls-27" x="14.42" y="6">s</tspan><tspan x="17.05" y="6">ci</tspan><tspan class="cls-17" x="22.17" y="6">n</tspan><tspan x="25.68" y="6">g e</tspan><tspan class="cls-12" x="34.67" y="6">li</tspan><tspan class="cls-28" x="39.1" y="6">t</tspan><tspan class="cls-29" x="41.08" y="6">.</tspan><tspan x="42.5" y="6"> </tspan><tspan class="cls-46" x="44.99" y="6">N</tspan><tspan class="cls-18" x="48.7" y="6">o</tspan><tspan x="52.41" y="6">n </tspan><tspan class="cls-45" x="58.57" y="6">e</tspan><tspan class="cls-49" x="61.78" y="6">s</tspan><tspan x="64.46" y="6">t i</tspan><tspan class="cls-39" x="71.2" y="6">g</tspan><tspan class="cls-12" x="74.79" y="6">i</tspan><tspan x="76.82" y="6">t</tspan><tspan class="cls-22" x="79.1" y="6">u</tspan><tspan x="82.61" y="6">r s</tspan><tspan class="cls-7" x="90.26" y="6">u</tspan><tspan class="cls-46" x="93.59" y="6">m</tspan><tspan class="cls-37" x="98.81" y="6">m</tspan><tspan class="cls-7" x="103.87" y="6">u</tspan><tspan x="107.2" y="6">m </tspan><tspan x="0" y="12">m</tspan><tspan class="cls-50" x="5.06" y="12">a</tspan><tspan class="cls-15" x="8.3" y="12">l</tspan><tspan class="cls-7" x="10.6" y="12">u</tspan><tspan x="13.93" y="12">m d</tspan><tspan class="cls-51" x="25.39" y="12">o</tspan><tspan class="cls-11" x="29.19" y="12">l</tspan><tspan class="cls-52" x="31.34" y="12">o</tspan><tspan class="cls-53" x="34.98" y="12">r</tspan><tspan class="cls-48" x="37" y="12">.</tspan></text><text class="cls-5" transform="translate(63.67 164.87)">L<tspan class="cls-6" x="3.17" y="0">o</tspan><tspan class="cls-7" x="6.81" y="0">r</tspan><tspan x="9.34" y="0">em </tspan><tspan class="cls-8" x="19.98" y="0">i</tspan><tspan x="21.84" y="0">ps</tspan><tspan class="cls-9" x="27.45" y="0">u</tspan><tspan x="30.78" y="0">m d</tspan><tspan class="cls-10" x="42.24" y="0">o</tspan><tspan class="cls-11" x="46.04" y="0">l</tspan><tspan class="cls-6" x="48.19" y="0">o</tspan><tspan x="51.83" y="0">r s</tspan><tspan class="cls-12" x="59.48" y="0">i</tspan><tspan x="61.51" y="0">t </tspan><tspan class="cls-13" x="66.28" y="0">a</tspan><tspan class="cls-14" x="69.57" y="0">m</tspan><tspan class="cls-15" x="74.75" y="0">e</tspan><tspan class="cls-16" x="77.8" y="0">t</tspan><tspan x="79.43" y="0">, </tspan><tspan class="cls-17" x="83.46" y="0">c</tspan><tspan class="cls-18" x="86.45" y="0">o</tspan><tspan x="90.17" y="0">ns</tspan><tspan class="cls-19" x="96.36" y="0">e</tspan><tspan class="cls-20" x="99.55" y="0">c</tspan><tspan class="cls-21" x="102.51" y="0">te</tspan><tspan x="107.8" y="0">t</tspan><tspan class="cls-22" x="110.08" y="0">u</tspan><tspan class="cls-23" x="113.59" y="0">r </tspan><tspan class="cls-24" x="0" y="6">a</tspan><tspan class="cls-25" x="3.29" y="6">d</tspan><tspan class="cls-26" x="7.4" y="6">i</tspan><tspan class="cls-27" x="9.25" y="6">p</tspan><tspan x="12.45" y="6">i</tspan><tspan class="cls-27" x="14.42" y="6">s</tspan><tspan x="17.05" y="6">ci</tspan><tspan class="cls-17" x="22.17" y="6">n</tspan><tspan x="25.68" y="6">g e</tspan><tspan class="cls-12" x="34.67" y="6">li</tspan><tspan class="cls-28" x="39.1" y="6">t</tspan><tspan class="cls-29" x="41.08" y="6">.</tspan><tspan x="42.5" y="6" xml:space="preserve"> Piso i</tspan><tspan class="cls-39" x="61.09" y="6">g</tspan><tspan class="cls-12" x="64.67" y="6">i</tspan><tspan x="66.7" y="6">t</tspan><tspan class="cls-22" x="68.98" y="6">u</tspan><tspan x="72.5" y="6">r h</tspan><tspan class="cls-54" x="80.71" y="6">o</tspan><tspan x="84.38" y="6">c m</tspan><tspan class="cls-55" x="95.07" y="6">o</tspan><tspan x="98.91" y="6">d</tspan><tspan class="cls-56" x="102.82" y="6">o</tspan><tspan x="106.01" y="6">, vir </tspan><tspan class="cls-6" x="0" y="12">op</tspan><tspan class="cls-57" x="6.78" y="12">t</tspan><tspan x="9.09" y="12">i</tspan><tspan class="cls-37" x="11.06" y="12">m</tspan><tspan class="cls-58" x="16.13" y="12">u</tspan><tspan x="19.71" y="12">s tu</tspan><tspan class="cls-59" x="30.44" y="12">i</tspan><tspan x="32.33" y="12">qu</tspan><tspan class="cls-8" x="38.99" y="12">e</tspan><tspan x="41.97" y="12">, </tspan><tspan class="cls-21" x="46.01" y="12">u</tspan><tspan x="49.39" y="12">t </tspan><tspan class="cls-27" x="54.16" y="12">s</tspan><tspan x="56.79" y="12">ci</tspan><tspan class="cls-11" x="61.91" y="12">s</tspan><tspan x="64.24" y="12">, </tspan><tspan class="cls-13" x="68.27" y="12">a</tspan><tspan x="71.56" y="12">ma</tspan><tspan class="cls-60" x="80.07" y="12">n</tspan><tspan class="cls-34" x="83.55" y="12">t</tspan><tspan x="85.86" y="12">issi</tspan><tspan class="cls-61" x="94.85" y="12">m</tspan><tspan class="cls-58" x="99.92" y="12">u</tspan><tspan class="cls-7" x="103.5" y="12">s</tspan><tspan class="cls-48" x="105.92" y="12">.</tspan><tspan x="107.35" y="12" xml:space="preserve"> Ex ea </tspan><tspan class="cls-62" x="0" y="18">d</tspan><tspan class="cls-63" x="4.11" y="18">i</tspan><tspan class="cls-64" x="5.85" y="18">f</tspan><tspan class="cls-37" x="8.35" y="18">f</tspan><tspan class="cls-6" x="11.02" y="18">i</tspan><tspan x="13.04" y="18">c</tspan><tspan class="cls-41" x="16.18" y="18">u</tspan><tspan class="cls-65" x="19.75" y="18">l</tspan><tspan class="cls-15" x="21.57" y="18">t</tspan><tspan class="cls-33" x="23.81" y="18">a</tspan><tspan class="cls-21" x="26.91" y="18">t</tspan><tspan x="29.14" y="18">e </tspan><tspan class="cls-6" x="34.73" y="18">i</tspan><tspan class="cls-66" x="36.75" y="18">l</tspan><tspan class="cls-7" x="39.02" y="18">l</tspan><tspan class="cls-32" x="41.26" y="18">a</tspan><tspan x="44.6" y="18">e </tspan><tspan class="cls-17" x="50.19" y="18">f</tspan><tspan class="cls-50" x="52.69" y="18">a</tspan><tspan class="cls-66" x="55.93" y="18">l</tspan><tspan class="cls-7" x="58.2" y="18">l</tspan><tspan class="cls-13" x="60.45" y="18">a</tspan><tspan x="63.74" y="18">c</tspan><tspan class="cls-52" x="66.88" y="18">i</tspan><tspan class="cls-11" x="68.9" y="18">l</tspan><tspan class="cls-45" x="71.06" y="18">o</tspan><tspan x="74.77" y="18">qu</tspan><tspan class="cls-32" x="81.43" y="18">a</tspan><tspan class="cls-8" x="84.77" y="18">e</tspan><tspan x="87.75" y="18">, </tspan><tspan class="cls-21" x="91.78" y="18">u</tspan><tspan x="95.17" y="18">t a</tspan><tspan class="cls-67" x="103.39" y="18">i</tspan><tspan x="105.41" y="18">t</tspan><tspan class="cls-33" x="107.7" y="18"> </tspan><tspan class="cls-66" x="109.84" y="18">A</tspan><tspan class="cls-68" x="113.46" y="18">c</tspan><tspan x="116.39" y="18">ci</tspan><tspan class="cls-58" x="121.5" y="18">u</tspan><tspan class="cls-11" x="125.08" y="18">s</tspan><tspan x="127.41" y="18">, </tspan><tspan x="0" y="24">m</tspan><tspan class="cls-50" x="5.06" y="24">a</tspan><tspan class="cls-67" x="8.3" y="24">li</tspan><tspan class="cls-34" x="12.73" y="24">t</tspan><tspan class="cls-6" x="15.04" y="24">i</tspan><tspan class="cls-32" x="17.07" y="24">a</tspan><tspan x="20.4" y="24">e n</tspan><tspan class="cls-33" x="29.66" y="24">a</tspan><tspan class="cls-15" x="32.76" y="24">t</tspan><tspan class="cls-69" x="34.99" y="24">a</tspan><tspan x="38.33" y="24">e s</tspan><tspan class="cls-70" x="46.44" y="24">u</tspan><tspan class="cls-71" x="49.95" y="24">n</tspan><tspan class="cls-47" x="53.43" y="24">t</tspan><tspan class="cls-48" x="55.4" y="24">.</tspan></text><text class="cls-5" transform="translate(63.67 232.68)">L<tspan class="cls-6" x="3.17" y="0">o</tspan><tspan class="cls-7" x="6.81" y="0">r</tspan><tspan x="9.34" y="0">em </tspan><tspan class="cls-8" x="19.98" y="0">i</tspan><tspan x="21.84" y="0">ps</tspan><tspan class="cls-9" x="27.45" y="0">u</tspan><tspan x="30.78" y="0">m d</tspan><tspan class="cls-10" x="42.24" y="0">o</tspan><tspan class="cls-11" x="46.04" y="0">l</tspan><tspan class="cls-6" x="48.19" y="0">o</tspan><tspan x="51.83" y="0">r s</tspan><tspan class="cls-12" x="59.48" y="0">i</tspan><tspan x="61.51" y="0">t </tspan><tspan class="cls-13" x="66.28" y="0">a</tspan><tspan class="cls-14" x="69.57" y="0">m</tspan><tspan class="cls-15" x="74.75" y="0">e</tspan><tspan class="cls-16" x="77.8" y="0">t</tspan><tspan x="79.43" y="0">, </tspan><tspan class="cls-17" x="83.46" y="0">c</tspan><tspan class="cls-18" x="86.45" y="0">o</tspan><tspan x="90.17" y="0">ns</tspan><tspan class="cls-19" x="96.36" y="0">e</tspan><tspan class="cls-20" x="99.55" y="0">c</tspan><tspan class="cls-21" x="102.51" y="0">te</tspan><tspan x="107.8" y="0">t</tspan><tspan class="cls-22" x="110.08" y="0">u</tspan><tspan class="cls-23" x="113.59" y="0">r </tspan><tspan class="cls-24" x="0" y="6">a</tspan><tspan class="cls-25" x="3.29" y="6">d</tspan><tspan class="cls-26" x="7.4" y="6">i</tspan><tspan class="cls-27" x="9.25" y="6">p</tspan><tspan x="12.45" y="6">i</tspan><tspan class="cls-27" x="14.42" y="6">s</tspan><tspan x="17.05" y="6">ci</tspan><tspan class="cls-17" x="22.17" y="6">n</tspan><tspan x="25.68" y="6">g e</tspan><tspan class="cls-12" x="34.67" y="6">li</tspan><tspan class="cls-28" x="39.1" y="6">t</tspan><tspan class="cls-29" x="41.08" y="6">.</tspan><tspan class="cls-30" x="42.5" y="6"> </tspan><tspan class="cls-31" x="44.65" y="6">A</tspan><tspan x="48.28" y="6">tqui </tspan><tspan class="cls-9" x="61.68" y="6">r</tspan><tspan class="cls-54" x="64.22" y="6">e</tspan><tspan class="cls-12" x="67.4" y="6">p</tspan><tspan class="cls-15" x="70.54" y="6">e</tspan><tspan class="cls-41" x="73.59" y="6">r</tspan><tspan x="76.36" y="6">i</tspan><tspan class="cls-45" x="78.33" y="6">e</tspan><tspan class="cls-11" x="81.55" y="6">s</tspan><tspan x="83.88" y="6">, inqu</tspan><tspan class="cls-12" x="100.22" y="6">i</tspan><tspan class="cls-16" x="102.24" y="6">t</tspan><tspan x="103.87" y="6">, in h</tspan><tspan class="cls-19" x="119.12" y="6">o</tspan><tspan x="122.79" y="6">c </tspan><tspan x="0" y="12">qu</tspan><tspan class="cls-39" x="6.66" y="12">i</tspan><tspan x="8.81" y="12">dem </tspan><tspan class="cls-12" x="23.36" y="12">p</tspan><tspan class="cls-21" x="26.51" y="12">e</tspan><tspan class="cls-61" x="29.56" y="12">r</tspan><tspan class="cls-34" x="32.2" y="12">t</tspan><tspan x="34.51" y="12">in</tspan><tspan class="cls-13" x="40.15" y="12">a</tspan><tspan class="cls-8" x="43.44" y="12">c</tspan><tspan x="46.47" y="12">e</tspan><tspan class="cls-72" x="49.57" y="12">m</tspan><tspan class="cls-48" x="54.56" y="12">.</tspan></text></svg>